<?xml version="1.0" encoding="utf-8" ?>
<svg xmlns="http://www.w3.org/2000/svg" xmlns:xlink="http://www.w3.org/1999/xlink" width="1024" height="1024">
	<g>
		<path fill="#0E6AB2" d="M503.405 341.215C503.666 341.191 503.926 341.159 504.187 341.142C546.572 338.34 592.252 356.394 624.228 383.688Q625.838 385.066 627.413 386.484Q628.989 387.901 630.53 389.356Q632.071 390.81 633.576 392.302Q635.081 393.794 636.55 395.322Q638.018 396.85 639.449 398.413Q640.88 399.976 642.273 401.573Q643.666 403.17 645.02 404.801Q646.373 406.431 647.687 408.094Q649.001 409.757 650.274 411.451Q651.547 413.145 652.779 414.87Q654.01 416.594 655.2 418.348Q656.389 420.102 657.536 421.884Q658.682 423.666 659.786 425.476Q660.889 427.285 661.948 429.121Q663.006 430.956 664.021 432.817Q665.035 434.678 666.004 436.563Q666.972 438.448 667.895 440.355Q668.818 442.263 669.694 444.193Q670.57 446.122 671.399 448.072Q672.229 450.022 673.01 451.992Q673.792 453.962 674.526 455.95Q675.26 457.938 675.945 459.943Q676.63 461.949 677.267 463.97Q677.904 465.991 678.491 468.028Q679.078 470.064 679.616 472.114Q680.154 474.163 680.642 476.226Q681.13 478.288 681.568 480.361Q682.006 482.435 682.393 484.518Q682.781 486.602 683.118 488.694Q683.454 490.786 683.741 492.886Q684.027 494.986 684.262 497.092Q684.497 499.198 684.681 501.309Q684.835 503.357 684.939 505.409Q685.043 507.46 685.098 509.513Q685.153 511.567 685.158 513.621Q685.163 515.675 685.119 517.728Q685.074 519.782 684.98 521.833Q684.886 523.885 684.742 525.934Q684.598 527.983 684.405 530.028Q684.212 532.073 683.969 534.113Q683.727 536.152 683.435 538.186Q683.143 540.219 682.802 542.244Q682.462 544.27 682.072 546.286Q681.682 548.303 681.244 550.31Q680.806 552.317 680.319 554.312Q679.832 556.308 679.298 558.291Q678.763 560.274 678.18 562.244Q677.598 564.213 676.968 566.168Q676.338 568.124 675.661 570.063Q674.984 572.002 674.261 573.924Q673.537 575.847 672.767 577.751Q671.997 579.655 671.182 581.54Q670.366 583.425 669.505 585.29Q668.644 587.155 667.738 588.999Q666.832 590.842 665.882 592.663Q664.932 594.484 663.938 596.282Q662.945 598.08 661.908 599.853Q660.871 601.626 659.791 603.373Q658.712 605.121 657.591 606.841Q656.469 608.562 655.306 610.256Q654.144 611.949 652.941 613.614Q651.737 615.278 650.494 616.913Q649.251 618.549 647.969 620.153Q646.687 621.758 645.366 623.331C614.048 659.897 569.745 680.541 522.123 684.363C475.841 686.358 432.836 671.382 398.005 640.832Q396.417 639.431 394.863 637.991Q393.31 636.551 391.793 635.073Q390.275 633.595 388.795 632.08Q387.314 630.565 385.871 629.014Q384.429 627.463 383.025 625.877Q381.62 624.291 380.256 622.671Q378.891 621.051 377.567 619.398Q376.243 617.745 374.96 616.06Q373.677 614.374 372.436 612.658Q371.195 610.941 369.996 609.195Q368.798 607.448 367.643 605.673Q366.488 603.897 365.377 602.094Q364.266 600.29 363.2 598.46Q362.134 596.629 361.113 594.773Q360.092 592.917 359.118 591.037Q358.143 589.156 357.215 587.252Q356.287 585.348 355.406 583.422Q354.525 581.495 353.692 579.548Q352.859 577.6 352.074 575.633Q351.29 573.665 350.554 571.679Q349.818 569.693 349.131 567.689Q348.444 565.686 347.807 563.666Q347.169 561.646 346.582 559.61Q345.995 557.575 345.458 555.526Q344.921 553.477 344.434 551.416Q343.948 549.354 343.513 547.281Q343.077 545.208 342.693 543.125Q342.309 541.042 341.977 538.95Q341.644 536.858 341.363 534.759Q341.082 532.659 340.853 530.554Q340.624 528.448 340.446 526.337Q340.269 524.226 340.144 522.112Q340.01 520.058 339.927 518.002Q339.844 515.946 339.811 513.888Q339.779 511.831 339.797 509.773Q339.815 507.715 339.884 505.658Q339.953 503.601 340.072 501.547Q340.192 499.492 340.362 497.442Q340.531 495.391 340.752 493.345Q340.972 491.298 341.243 489.258Q341.514 487.218 341.835 485.186Q342.155 483.153 342.526 481.129Q342.897 479.104 343.318 477.09Q343.738 475.075 344.208 473.072Q344.678 471.068 345.197 469.077Q345.717 467.086 346.285 465.108Q346.853 463.13 347.469 461.166Q348.086 459.203 348.751 457.255Q349.416 455.308 350.128 453.377Q350.841 451.446 351.6 449.534Q352.36 447.621 353.167 445.728Q353.974 443.835 354.827 441.962Q355.68 440.089 356.578 438.238Q357.477 436.387 358.422 434.558Q359.366 432.73 360.355 430.925Q361.344 429.12 362.377 427.34Q363.41 425.561 364.486 423.807Q365.563 422.053 366.682 420.326Q367.802 418.599 368.963 416.9Q370.125 415.202 371.328 413.532Q372.531 411.863 373.775 410.223Q375.019 408.584 376.303 406.975Q377.586 405.367 378.91 403.791Q380.233 402.214 381.594 400.671Q383.029 399.037 384.503 397.439Q385.978 395.841 387.491 394.279Q389.005 392.718 390.557 391.195Q392.109 389.672 393.698 388.188Q395.287 386.703 396.913 385.259Q398.538 383.814 400.199 382.411Q401.859 381.007 403.554 379.645Q405.249 378.282 406.977 376.963Q408.705 375.643 410.466 374.366Q412.226 373.089 414.017 371.857Q415.809 370.624 417.63 369.436Q419.451 368.248 421.302 367.106Q423.152 365.964 425.03 364.867Q426.908 363.771 428.812 362.722Q430.717 361.672 432.647 360.67Q434.577 359.668 436.531 358.715Q438.485 357.761 440.462 356.856Q442.439 355.951 444.438 355.095Q446.437 354.239 448.457 353.433Q450.476 352.627 452.515 351.871Q454.554 351.115 456.611 350.41Q458.668 349.705 460.742 349.051Q462.816 348.397 464.905 347.794Q466.995 347.192 469.098 346.641Q471.202 346.091 473.318 345.593Q475.435 345.094 477.563 344.649Q479.692 344.203 481.831 343.81Q483.969 343.417 486.117 343.078Q488.265 342.738 490.42 342.452Q492.576 342.165 494.738 341.932Q496.9 341.699 499.067 341.52Q501.234 341.341 503.405 341.215ZM671.59 542.212Q673.391 530.663 673.747 518.979Q673.782 517.014 673.77 515.049Q673.758 513.084 673.698 511.119Q673.639 509.155 673.532 507.193Q673.425 505.231 673.271 503.271Q673.116 501.312 672.915 499.357Q672.713 497.402 672.465 495.453Q672.216 493.504 671.921 491.561Q671.625 489.618 671.283 487.683Q670.941 485.747 670.552 483.821Q670.163 481.895 669.727 479.978Q669.292 478.062 668.811 476.157Q668.329 474.251 667.802 472.358Q667.275 470.465 666.702 468.585Q666.13 466.705 665.512 464.84Q664.894 462.974 664.231 461.124Q663.568 459.274 662.861 457.44Q662.154 455.607 661.403 453.791Q660.652 451.975 659.857 450.177Q659.062 448.38 658.224 446.602Q657.386 444.825 656.506 443.068Q655.625 441.311 654.702 439.576Q653.78 437.841 652.815 436.128Q651.851 434.416 650.846 432.727Q649.841 431.039 648.795 429.375Q647.749 427.711 646.663 426.073Q645.578 424.435 644.453 422.823Q643.328 421.212 642.165 419.628Q641.002 418.044 639.8 416.489Q638.599 414.933 637.361 413.407Q636.122 411.881 634.848 410.386Q633.573 408.89 632.262 407.426Q630.952 405.961 629.606 404.529Q628.187 403.047 626.732 401.599Q625.278 400.152 623.788 398.741Q622.299 397.329 620.776 395.954Q619.252 394.579 617.696 393.242Q616.14 391.905 614.551 390.606Q612.963 389.307 611.343 388.047Q609.723 386.787 608.073 385.567Q606.424 384.347 604.745 383.167Q603.065 381.988 601.358 380.849Q599.651 379.711 597.916 378.615Q596.182 377.518 594.421 376.465Q592.66 375.411 590.875 374.4Q589.089 373.39 587.279 372.423Q585.469 371.456 583.636 370.533Q581.803 369.611 579.948 368.733Q578.093 367.856 576.217 367.024Q574.342 366.192 572.446 365.405Q570.551 364.619 568.637 363.879Q566.723 363.14 564.792 362.447Q562.86 361.754 560.912 361.108Q558.965 360.462 557.002 359.864Q555.039 359.266 553.062 358.716Q551.085 358.166 549.095 357.664Q547.106 357.162 545.104 356.709Q543.103 356.256 541.091 355.852Q539.08 355.447 537.059 355.092Q535.037 354.737 533.008 354.431Q530.979 354.125 528.944 353.869Q526.908 353.612 524.866 353.406Q522.824 353.199 520.779 353.042Q518.733 352.885 516.683 352.778Q514.634 352.671 512.583 352.614Q510.608 352.604 508.634 352.643Q506.659 352.682 504.686 352.769Q502.713 352.856 500.743 352.992Q498.773 353.127 496.807 353.311Q494.84 353.495 492.879 353.727Q490.918 353.959 488.963 354.239Q487.008 354.519 485.061 354.847Q483.113 355.175 481.174 355.551Q479.236 355.927 477.307 356.35Q475.378 356.773 473.46 357.243Q471.541 357.713 469.635 358.23Q467.73 358.748 465.837 359.311Q463.944 359.875 462.066 360.485Q460.188 361.095 458.325 361.751Q456.462 362.407 454.616 363.109Q452.77 363.81 450.942 364.557Q449.113 365.303 447.304 366.094Q445.494 366.885 443.705 367.721Q441.915 368.556 440.147 369.435Q438.378 370.314 436.632 371.236Q434.885 372.158 433.162 373.123Q431.439 374.087 429.74 375.094Q428.041 376.1 426.367 377.148Q424.693 378.196 423.045 379.285Q421.398 380.374 419.777 381.503Q418.157 382.632 416.565 383.8Q414.972 384.968 413.409 386.175Q411.846 387.382 410.313 388.627Q408.78 389.872 407.278 391.154Q405.776 392.436 404.306 393.755Q402.835 395.073 401.398 396.428Q399.961 397.782 398.557 399.171C368.634 429.013 350.384 469.765 350.63 512.304C350.872 554.065 369.062 597.139 398.876 626.356C431.112 657.946 471.815 673.724 516.81 673.188C561.394 672.657 601.405 652.493 632.22 620.92C653.174 599.45 665.15 571.092 671.59 542.212Z"/>
		<path fill="#5DCBEE" d="M671.59 542.212C665.15 571.092 653.174 599.45 632.22 620.92C601.405 652.493 561.394 672.657 516.81 673.188C471.815 673.724 431.112 657.946 398.876 626.356C369.062 597.139 350.872 554.065 350.63 512.304C350.384 469.765 368.634 429.013 398.557 399.171Q399.961 397.782 401.398 396.428Q402.835 395.073 404.306 393.755Q405.776 392.436 407.278 391.154Q408.78 389.872 410.313 388.627Q411.846 387.382 413.409 386.175Q414.972 384.968 416.565 383.8Q418.157 382.632 419.777 381.503Q421.398 380.374 423.045 379.285Q424.693 378.196 426.367 377.148Q428.041 376.1 429.74 375.094Q431.439 374.087 433.162 373.123Q434.885 372.158 436.632 371.236Q438.378 370.314 440.147 369.435Q441.915 368.556 443.705 367.721Q445.494 366.885 447.304 366.094Q449.113 365.303 450.942 364.557Q452.77 363.81 454.616 363.109Q456.462 362.407 458.325 361.751Q460.188 361.095 462.066 360.485Q463.944 359.875 465.837 359.311Q467.729 358.748 469.635 358.23Q471.541 357.713 473.46 357.243Q475.378 356.773 477.307 356.35Q479.236 355.927 481.174 355.551Q483.113 355.175 485.061 354.847Q487.008 354.519 488.963 354.239Q490.918 353.959 492.879 353.727Q494.84 353.495 496.807 353.311Q498.773 353.127 500.743 352.992Q502.713 352.856 504.686 352.769Q506.659 352.682 508.634 352.643Q510.608 352.604 512.583 352.614C511.951 374.519 512.601 396.608 512.763 418.528C512.855 430.887 512.122 443.455 512.754 455.779C531.078 456.03 547.227 460.253 560.436 473.711C569.246 482.685 576.033 494.423 578.181 506.914C592.851 508.301 603.726 513.58 613.181 525.132Q614.585 526.818 615.851 528.61Q617.117 530.403 618.236 532.29Q619.355 534.178 620.32 536.148Q621.286 538.119 622.091 540.16C638.544 540.088 655.134 541.612 671.59 542.212ZM460.058 519.028C448.526 516.174 436.871 517.931 426.65 524.046Q425.772 524.566 424.921 525.128Q424.07 525.691 423.248 526.296Q422.426 526.9 421.635 527.544Q420.844 528.189 420.086 528.872Q419.328 529.555 418.605 530.275Q417.882 530.995 417.195 531.75Q416.509 532.505 415.861 533.293Q415.213 534.081 414.605 534.9Q413.997 535.72 413.431 536.568Q412.864 537.417 412.341 538.292Q411.817 539.168 411.338 540.069Q410.858 540.969 410.424 541.893Q409.99 542.816 409.603 543.76Q409.215 544.704 408.875 545.666Q408.535 546.628 408.243 547.605Q407.951 548.583 407.708 549.574Q407.465 550.564 407.272 551.566Q407.078 552.567 406.934 553.576Q406.79 554.586 406.695 555.601Q406.601 556.617 406.557 557.636Q406.513 558.654 406.519 559.674Q406.525 560.694 406.581 561.712Q406.637 562.73 406.743 563.745Q406.85 564.759 407.006 565.767Q407.162 566.774 407.368 567.773Q407.573 568.772 407.828 569.76Q408.082 570.747 408.385 571.721Q408.688 572.695 409.038 573.652Q409.388 574.61 409.785 575.549Q410.182 576.489 410.625 577.407Q411.068 578.326 411.555 579.222Q412.043 580.117 412.574 580.988C418.288 590.204 428.273 597.181 438.842 599.58C447.794 601.612 458.457 600.615 467.607 600.638L507.969 600.906L547.499 600.865C558.399 600.842 571.227 601.823 581.808 599.059Q583.234 598.684 584.633 598.217Q586.031 597.75 587.396 597.192Q588.761 596.635 590.086 595.989Q591.411 595.343 592.692 594.611Q593.972 593.88 595.202 593.066Q596.431 592.253 597.605 591.36Q598.779 590.468 599.891 589.5Q601.004 588.533 602.051 587.495C609.846 579.78 614.305 569.926 614.327 558.909C614.349 547.796 609.888 536.463 602.001 528.579C593.825 520.406 583.956 517.688 572.724 517.003C569.019 500.689 561.396 486.851 546.952 477.701C536.877 471.32 523.694 467.256 511.702 468.676C495.128 470.957 481.154 478.522 470.881 491.919C464.749 499.917 461.186 509.042 460.058 519.028Z"/>
		<path fill="#77BA42" d="M881.096 550.464C881.403 550.546 881.63 550.811 881.885 551.001C882.365 557.369 879.785 570.242 878.597 577.07C869.628 628.605 848.864 677.224 820.198 720.863C813.878 730.484 806.755 739.315 799.48 748.212Q796.999 751.237 794.455 754.209Q791.912 757.182 789.307 760.1Q786.702 763.019 784.037 765.883Q781.372 768.747 778.647 771.555Q775.923 774.363 773.141 777.113Q770.359 779.863 767.52 782.555Q764.681 785.247 761.787 787.879Q758.893 790.511 755.944 793.083Q752.996 795.654 749.994 798.163Q746.993 800.672 743.94 803.119Q740.887 805.565 737.783 807.947Q734.68 810.329 731.528 812.646Q728.375 814.963 725.176 817.214Q721.976 819.464 718.73 821.648Q715.484 823.832 712.193 825.947Q708.902 828.063 705.568 830.109Q702.234 832.156 698.858 834.132Q695.482 836.109 692.065 838.015Q688.648 839.921 685.193 841.755Q681.737 843.589 678.244 845.351Q674.751 847.113 671.223 848.802Q667.694 850.49 664.13 852.105Q660.567 853.72 656.971 855.26Q653.375 856.801 649.747 858.266Q646.12 859.731 642.463 861.12Q638.805 862.509 635.12 863.822Q631.435 865.134 627.723 866.37Q624.011 867.606 620.274 868.764Q616.537 869.922 612.777 871.002Q609.017 872.082 605.235 873.083Q601.453 874.084 597.651 875.007Q593.849 875.929 590.029 876.772C576.668 879.811 562.83 882.121 549.201 883.52C540.699 884.393 531.529 884.259 523.194 886.067C523.017 886.106 522.841 886.149 522.664 886.189C517.417 880.064 513.773 872.574 510.259 865.367C504.901 854.333 501.77 843.367 499.994 831.253C495.401 799.927 500.954 767.253 520.01 741.462C560.086 742.295 603.563 727.934 636.51 705.393C690.237 668.635 727.532 618.949 739.789 554.189Q741.914 554.962 744.057 555.685Q746.2 556.407 748.359 557.08Q750.518 557.752 752.693 558.373Q754.867 558.995 757.056 559.565Q759.244 560.136 761.445 560.654Q763.646 561.173 765.859 561.641Q768.071 562.108 770.294 562.523Q772.517 562.938 774.75 563.301Q776.982 563.664 779.222 563.974Q781.462 564.285 783.708 564.543Q785.955 564.801 788.207 565.006Q790.459 565.211 792.716 565.364Q794.972 565.516 797.231 565.615Q799.491 565.715 801.751 565.761Q804.012 565.808 806.274 565.801Q808.535 565.794 810.796 565.735Q813.057 565.675 815.315 565.563Q817.574 565.45 819.829 565.285Q822.085 565.119 824.336 564.901Q826.586 564.682 828.832 564.411Q831.077 564.141 833.315 563.817Q835.553 563.493 837.783 563.117Q840.013 562.742 842.234 562.313Q844.454 561.885 846.664 561.405Q848.874 560.925 851.072 560.393Q853.27 559.862 855.455 559.279Q857.64 558.696 859.811 558.061Q861.982 557.427 864.137 556.742Q866.292 556.058 868.431 555.322Q870.569 554.587 872.69 553.802Q874.811 553.017 876.913 552.182Q879.014 551.348 881.096 550.464ZM678.171 690.65C675.851 693.212 673.874 696.233 673.975 699.841C674.114 704.795 677.958 708.416 681.19 711.694L681.936 719.385C678.239 722.883 673.668 727.281 673.545 732.79C673.508 734.423 674.294 735.843 675.423 736.96C680.534 742.015 693.21 741.995 693.454 751.036C693.605 756.63 690.595 759.545 695.3 764.353C696.119 765.189 697.098 765.848 698.066 766.497L698.811 766.522C704.167 766.665 714.893 763.301 718.908 767.424C722.226 770.832 723.324 778.473 729.196 778.713C732.308 778.841 735.261 777.565 737.822 775.938C737.931 775.832 738.043 775.729 738.151 775.621C741.258 772.48 742.211 767.584 746.355 765.576C753.565 766.396 761.622 772.522 768.682 767.312C770.419 766.03 771.117 764.098 771.281 762.021C771.6 757.984 770.516 755.125 768.848 751.517C771.507 747.189 774.237 742.591 777.821 738.961C782.108 738.327 786.414 737.405 789.205 733.68C790.623 731.787 790.839 729.697 790.363 727.426C788.601 719.021 776.782 716.943 780.875 709.553C783.521 704.777 787.852 702.748 786.202 696.499C785.586 694.165 784.271 692.301 782.15 691.111C778.366 688.987 770.386 689.137 768.446 684.714C766.026 679.194 773.702 672.927 763.863 667.202C762.087 666.168 760.16 665.865 758.168 666.418C753.469 667.724 748.796 673.225 743.637 670.552C737.147 667.189 741.907 658.971 730.346 658.126C727.5 658.631 724.399 659.098 722.605 661.648C720.312 664.906 719.072 670.083 714.531 670.946C707.867 672.213 701.794 661.535 693.88 670.437C686.661 678.558 701.208 687.398 678.171 690.65Z"/>
		<path fill="#77BA42" d="M725.715 682.635C733.514 682.001 741.676 683.408 748.557 687.206Q749.323 687.632 750.068 688.095Q750.812 688.559 751.532 689.059Q752.252 689.56 752.946 690.095Q753.64 690.631 754.307 691.201Q754.973 691.771 755.61 692.373Q756.247 692.976 756.853 693.609Q757.459 694.243 758.033 694.906Q758.606 695.569 759.146 696.26Q759.686 696.951 760.19 697.669Q760.694 698.386 761.162 699.128Q761.63 699.869 762.06 700.633Q762.49 701.397 762.881 702.182Q763.272 702.967 763.624 703.77Q763.975 704.573 764.286 705.393Q764.596 706.213 764.866 707.048Q765.135 707.882 765.362 708.729C767.777 717.555 766.964 727.573 762.374 735.553C756.277 746.153 747.284 751.121 735.817 754.25C726.919 755.371 718.211 754.196 710.714 749.027C702.581 743.42 696.889 733.016 695.255 723.394C693.676 714.089 696.289 704.721 701.7 697.084C707.619 688.729 715.763 684.386 725.715 682.635ZM732.721 744.494C740.304 743.173 746.946 740.415 751.557 733.89C755.792 727.898 757.324 719.712 755.966 712.532C754.757 706.146 751.179 700.671 745.752 697.077C741.106 693.999 734.906 692.462 729.343 693.184C721.64 694.144 715.18 696.379 710.142 702.692C705.913 707.992 703.857 714.808 704.865 721.545Q704.974 722.226 705.116 722.9Q705.259 723.574 705.435 724.24Q705.611 724.907 705.821 725.563Q706.03 726.22 706.273 726.865Q706.515 727.51 706.789 728.142Q707.064 728.775 707.37 729.392Q707.675 730.01 708.012 730.611Q708.348 731.213 708.715 731.797Q709.081 732.381 709.476 732.945Q709.871 733.51 710.294 734.054Q710.717 734.598 711.167 735.12Q711.617 735.643 712.092 736.142Q712.568 736.64 713.068 737.115Q713.568 737.589 714.091 738.038Q714.614 738.486 715.159 738.908Q715.704 739.33 716.27 739.724C721.25 743.177 726.703 744.663 732.721 744.494Z"/>
		<path fill="#27A5DF" d="M492.514 142.786C496.93 142.391 501.433 142.477 505.866 142.403C514.226 153.837 520.327 168.298 523.772 181.993C532.52 216.761 524.472 252.909 506.503 283.216C456.829 284.892 417.754 297.585 376.897 326.084Q375.058 327.388 373.245 328.728Q371.432 330.068 369.645 331.443Q367.858 332.817 366.098 334.226Q364.338 335.635 362.605 337.077Q360.873 338.52 359.168 339.996Q357.464 341.471 355.788 342.98Q354.113 344.488 352.467 346.029Q350.821 347.569 349.205 349.141Q347.589 350.713 346.003 352.316Q344.418 353.919 342.864 355.552Q341.31 357.186 339.788 358.849Q338.266 360.512 336.776 362.204Q335.286 363.896 333.829 365.616Q332.372 367.337 330.949 369.085Q329.525 370.834 328.136 372.609Q326.747 374.385 325.392 376.187Q324.037 377.989 322.718 379.817Q321.398 381.644 320.114 383.497Q318.83 385.35 317.582 387.228Q316.334 389.105 315.122 391.007Q313.91 392.908 312.736 394.832Q311.561 396.757 310.424 398.703Q309.287 400.65 308.187 402.618Q307.088 404.586 306.027 406.575Q304.965 408.565 303.943 410.574Q302.92 412.583 301.937 414.612Q300.953 416.64 300.009 418.687Q299.065 420.735 298.16 422.8Q297.256 424.865 296.391 426.947Q295.527 429.029 294.703 431.128Q293.879 433.226 293.096 435.34Q292.312 437.454 291.57 439.583C287.991 449.646 284.803 459.505 282.937 470.047C258.037 460.197 229.38 456.247 202.674 458.565C193.281 459.38 184.003 461.171 174.744 462.885C162.724 465.953 151.713 470.217 140.371 475.178C142.381 459.317 144.805 443.412 148.599 427.87C163.692 366.051 195.593 308.88 237.79 261.539C284.016 209.678 351.243 169.535 418.646 152.983C434.007 149.21 450.025 146.092 465.765 144.432C474.615 143.499 483.627 143.295 492.514 142.786ZM288.037 374.595C303.396 374.481 316.794 369.91 327.691 358.785C338.834 347.408 346.215 332.719 346.008 316.574C345.829 302.634 339.627 288.084 329.585 278.382C319.049 268.202 303.663 262.196 289.042 262.51C288.069 262.531 287.115 262.602 286.147 262.701C266.792 264.626 250.188 272.417 237.747 287.697Q236.999 288.611 236.296 289.562Q235.594 290.512 234.94 291.496Q234.287 292.48 233.682 293.496Q233.078 294.511 232.525 295.556Q231.972 296.6 231.472 297.67Q230.971 298.741 230.525 299.835Q230.078 300.929 229.687 302.043Q229.295 303.158 228.959 304.291Q228.623 305.424 228.344 306.572Q228.065 307.72 227.844 308.881Q227.622 310.042 227.459 311.212Q227.295 312.382 227.19 313.559Q227.085 314.736 227.038 315.917Q226.992 317.097 227.004 318.279Q227.016 319.461 227.087 320.64Q227.158 321.819 227.287 322.994C228.824 337.834 237.731 351.882 249.189 361.168C259.955 369.894 274.282 374.397 288.037 374.595Z"/>
		<path fill="#5DCBEE" d="M211.411 513.721C235.424 511.632 259.102 517.248 280.878 526.996C282.356 532.805 282.654 539.061 283.45 545.002C285.055 556.973 287.274 568.779 291.161 580.239C294.698 590.666 298.563 601.228 303.481 611.086C325.157 654.531 363.911 694.212 408.232 714.656C416.817 718.616 425.631 722.556 434.68 725.347C441.819 727.549 450.741 728.735 457.312 732.096C457.458 732.17 457.601 732.251 457.745 732.329C435.547 782.099 436.372 829.807 455.516 880.259C440.22 878.986 425.061 875.582 410.379 871.209C393.716 866.225 377.318 860.8 361.291 854.002C325.379 838.769 289.682 816.912 260.388 791.106Q254.992 786.441 249.796 781.553Q244.6 776.666 239.615 771.565Q234.629 766.463 229.861 761.157Q225.094 755.851 220.554 750.349Q216.014 744.847 211.708 739.16Q207.403 733.473 203.34 727.609Q199.277 721.746 195.465 715.718Q191.652 709.689 188.095 703.506C183.263 695.295 178.265 687.13 174.016 678.595C152.277 634.924 142.456 587.004 139.413 538.598C143.544 535.026 148.704 532.353 153.532 529.847C171.63 520.45 190.958 514.551 211.411 513.721ZM239.834 633.979C249.305 632.472 257.603 629.196 263.436 621.189Q263.895 620.555 264.322 619.9Q264.749 619.244 265.143 618.568Q265.537 617.892 265.897 617.197Q266.257 616.502 266.582 615.79Q266.907 615.078 267.196 614.351Q267.485 613.624 267.737 612.883Q267.99 612.143 268.206 611.391Q268.421 610.638 268.599 609.876Q268.777 609.114 268.917 608.344Q269.056 607.574 269.158 606.799Q269.259 606.023 269.322 605.243Q269.385 604.463 269.408 603.681Q269.432 602.898 269.417 602.116Q269.402 601.334 269.348 600.553Q269.294 599.772 269.202 598.995Q269.109 598.218 268.978 597.447C266.683 583.62 253.978 562.185 242.354 554.308C240.667 553.165 239.271 552.64 237.238 552.488C225.841 558.461 212.032 582.083 208.312 594.046Q208.078 594.779 207.88 595.523Q207.682 596.267 207.52 597.019Q207.359 597.772 207.235 598.532Q207.111 599.291 207.025 600.056Q206.939 600.821 206.89 601.589Q206.841 602.358 206.83 603.127Q206.82 603.897 206.847 604.666Q206.874 605.435 206.938 606.202Q207.003 606.969 207.106 607.732Q207.208 608.495 207.348 609.252Q207.488 610.009 207.665 610.758Q207.842 611.507 208.056 612.246Q208.27 612.986 208.519 613.714Q208.769 614.442 209.054 615.157Q209.34 615.872 209.66 616.572Q209.98 617.272 210.334 617.955C214.106 625.149 221.047 630.491 228.794 632.788C232.459 633.875 236.019 634.103 239.834 633.979ZM269.362 740.286C279.011 739.619 286.827 736.425 293.283 728.999Q293.722 728.497 294.135 727.974Q294.549 727.45 294.936 726.907Q295.323 726.364 295.683 725.803Q296.042 725.241 296.374 724.662Q296.705 724.084 297.008 723.489Q297.31 722.895 297.583 722.286Q297.855 721.678 298.097 721.056Q298.34 720.435 298.551 719.802Q298.762 719.17 298.941 718.527Q299.121 717.885 299.268 717.235Q299.416 716.584 299.531 715.927Q299.646 715.271 299.729 714.609Q299.811 713.947 299.861 713.282Q299.911 712.617 299.927 711.95Q299.944 711.284 299.928 710.617Q299.911 709.95 299.862 709.285C298.741 695.138 284.2 671.747 273.554 662.894C271.86 661.485 270.572 660.868 268.357 660.848C255.866 670.271 240.889 692.477 238.661 708.124C237.592 715.635 239.654 722.529 244.24 728.537Q244.698 729.125 245.184 729.691Q245.67 730.256 246.183 730.797Q246.696 731.337 247.235 731.852Q247.775 732.367 248.338 732.855Q248.902 733.343 249.489 733.802Q250.076 734.262 250.685 734.692Q251.294 735.122 251.923 735.522Q252.552 735.922 253.2 736.291Q253.848 736.659 254.513 736.995Q255.179 737.332 255.86 737.635Q256.541 737.938 257.236 738.208Q257.931 738.477 258.639 738.712Q259.346 738.947 260.064 739.147Q260.782 739.347 261.51 739.512Q262.237 739.676 262.971 739.805Q263.705 739.933 264.445 740.026C266.089 740.224 267.706 740.319 269.362 740.286Z"/>
		<path fill="#27A5DF" d="M367.522 739.677C378.288 738.664 390.231 742.565 398.839 748.966C407.974 755.759 415.016 767.24 416.643 778.525C418.253 789.7 416.633 801.189 409.721 810.329C401.765 820.849 391.963 825.548 379.121 827.292C378.901 827.338 378.684 827.403 378.461 827.43C368.249 828.667 356.118 824.976 347.974 818.806C338.786 811.845 331.907 800.649 330.331 789.195Q330.178 788.077 330.081 786.954Q329.984 785.83 329.943 784.702Q329.903 783.575 329.919 782.447Q329.935 781.319 330.008 780.193Q330.081 779.067 330.211 777.947Q330.34 776.826 330.526 775.713Q330.711 774.601 330.952 773.499Q331.193 772.396 331.49 771.308Q331.786 770.219 332.137 769.147Q332.487 768.075 332.891 767.022Q333.295 765.969 333.752 764.937Q334.208 763.905 334.716 762.898Q335.223 761.89 335.781 760.91Q336.339 759.929 336.945 758.978Q337.551 758.026 338.204 757.107Q338.857 756.187 339.556 755.301C346.456 746.452 356.421 741.004 367.522 739.677Z"/>
		<path fill="#5DCBEE" d="M359.579 754.516C359.547 752.985 359.346 751.306 359.796 749.843C361.844 749.377 364.349 748.989 366.31 749.92L366.505 750.692C365.057 752.598 362.756 753.764 360.758 755.036C361.374 755.284 362.067 755.524 362.644 755.867C363.851 756.584 364.16 757.063 364.543 758.381C364.031 759.572 363.649 760.624 363.364 761.899C364.163 762.57 364.865 763.233 365.556 764.015C365.257 765.078 364.895 765.559 363.827 766.04C362.239 766.755 360.091 765.46 358.549 764.886C357.068 765.322 355.487 765.743 353.938 765.376C352.66 765.073 352.173 764.619 351.439 763.582L351.835 762.511C353.756 761.075 356.234 760.7 358.526 760.119L359.091 760.53L359.105 759.835L359.234 759.872C358.439 759.156 358.783 759.32 357.851 758.99C357.038 758.703 356.181 758.484 355.392 758.13C354.23 757.609 353.528 756.879 353.161 755.634C352.8 754.409 353.159 753.346 353.708 752.281C353.887 752.237 354.063 752.172 354.245 752.148C356.001 751.916 357.717 753.245 359.088 754.177L359.579 754.516Z"/>
		<path fill="#5DCBEE" d="M382.619 750.802C382.844 750.919 383.072 751.031 383.294 751.153C384.528 751.83 385.708 752.922 386.027 754.334C386.085 754.589 386.126 754.847 386.175 755.103C389.722 756.298 392.787 753.875 396.336 756.258C396.186 760.222 387.892 758.711 385.655 761.258L385.919 761.934C386.477 762.139 386.82 762.293 387.434 762.384C389.212 762.645 390.661 761.419 392.044 760.485L393.445 759.494C394.698 759.495 394.797 759.438 395.788 760.181C396.132 761.326 396.199 761.598 395.59 762.737C394.506 764.767 390.648 767.122 388.439 767.593C387.267 767.843 386.137 767.674 385.208 766.869C383.116 765.057 382.682 759.627 382.824 756.995C382.936 754.923 382.756 752.87 382.619 750.802Z"/>
		<path fill="#5DCBEE" d="M360.036 812.699C357.712 813.982 354.458 816.26 351.782 816.13L351.324 815.321C351.623 813.876 352.044 812.781 352.706 811.454C353.157 810.55 353.472 809.945 353.709 808.957C353.232 808.588 352.675 808.203 352.244 807.775C351.177 806.716 351.043 806.618 350.987 805.183C351.747 804.01 352.046 803.501 353.393 802.947C354.733 803.104 355.526 804.087 356.483 804.956C357.217 805.621 356.752 805.418 357.863 805.447C358.654 804.238 359.275 803.14 360.531 802.354C360.883 802.428 361.234 802.473 361.542 802.69C364.15 804.53 362.772 806.325 363.306 808.68C363.34 808.827 363.397 808.967 363.442 809.111C363.963 810.764 364.274 811.892 364.044 813.623L363.362 814.643C362.217 814.655 361.97 814.601 361.059 813.797C360.748 813.523 360.321 813.022 360.036 812.699Z"/>
		<path fill="#5DCBEE" d="M341.827 775.345C344.449 776.347 346.313 778.4 348.348 780.271C350.254 780.405 352.042 780.193 353.945 780.569C354.054 782.042 352.562 782.139 352.118 783.278C351.822 784.04 352.273 785.914 352.051 786.946L348.251 789.031C346.03 790.293 343.891 791.586 341.459 792.402C340.547 791.786 340.621 791.649 340.195 790.693C340.348 789.212 341.691 788.004 342.607 786.892C342.276 784.22 342.737 780.878 342.167 778.451C341.907 777.345 341.862 776.476 341.827 775.345Z"/>
		<path fill="#5DCBEE" d="M380.762 777.83C381.492 778.042 381.107 777.857 381.842 778.521C381.625 780.696 379.983 782.971 378.931 784.873C380.776 787.771 382.386 790.59 383.766 793.738C381.608 792.56 379.36 789.944 377.126 789.293C375.369 788.781 374.612 789.536 373.092 790.31C371.878 790.39 371.025 790.565 369.921 789.962C370.439 786.469 370.267 782.79 370.305 779.261L370.481 779.586L370.41 778.594C370.953 778.298 371.488 778.37 372.096 778.346C373.868 779.223 374.756 780.985 375.814 782.586C377.373 780.85 378.97 779.325 380.762 777.83Z"/>
		<path fill="#5DCBEE" d="M410.889 774.313C411.636 774.633 411.908 775.065 412.429 775.669L412.286 776.837C410.862 778.238 408.99 778.834 407.175 779.591C409.077 780.719 411.625 782.027 412.629 784.05C412.228 785.255 412.252 785.266 411.181 785.939C410.143 785.826 409.215 785.679 408.211 785.381L407.273 785.096L406.835 785.932C407.04 787.016 407.303 787.998 406.993 789.09C406.762 789.9 406.221 789.939 405.533 790.313C402.976 786.656 401.673 785.643 397.2 784.746C400.076 782.225 401.664 779.245 404.266 776.557C405.764 776.022 405.832 776.239 407.337 776.836C409.09 776.511 409.644 775.55 410.889 774.313Z"/>
		<path fill="#5DCBEE" d="M384.317 808.392C383.931 806.975 383.406 806.24 384.07 804.893C386.775 804.05 391.115 802.223 393.879 802.653C393.743 803.528 393.476 804.154 393.087 804.946Q393.82 805.919 394.521 806.915C394.295 808.099 394.507 807.986 393.507 808.833C392.792 809.439 392.178 810.062 391.568 810.775Q391.556 813.036 391.467 815.295L390.78 815.91C389.088 815.779 387.846 815.245 386.719 813.957C386.568 813.784 386.439 813.592 386.299 813.41C385.345 812.467 385.893 812.809 384.665 812.363C383.876 812.741 383.12 813.117 382.371 813.574C382.175 813.693 381.983 813.817 381.789 813.939L381 813.307C380.786 812.039 380.794 811.322 381.498 810.187C382.312 808.876 382.85 808.64 384.317 808.392Z"/>
		<path fill="#F6B01A" d="M571.153 144.249C582.193 145.507 597.834 149.683 608.681 152.63C672.865 170.07 723.806 200.535 772.341 245.663C798.891 270.349 820.653 300.136 838.519 331.547C841.908 337.507 845.5 343.414 848.521 349.569C852.918 358.526 856.462 367.922 860.042 377.23C873.411 411.985 882.937 447.649 884.311 485.006C876.489 490.615 866.812 495.082 857.874 498.512C818.216 512.783 780.304 511.611 741.508 495.144C740.144 487.351 739.969 479.306 738.679 471.462C734.537 446.26 725.717 422.428 713.8 399.904C704.798 382.89 693.012 367.87 679.769 353.972C645.779 318.299 614.308 300.876 567.471 286.515C568.712 282.246 570.838 278.081 572.514 273.955Q576.078 265.117 578.76 255.972Q579.477 253.499 580.113 251.004Q580.75 248.509 581.306 245.995Q581.861 243.481 582.336 240.95Q582.81 238.419 583.202 235.874Q583.594 233.329 583.904 230.773Q584.214 228.217 584.442 225.652Q584.669 223.088 584.813 220.517Q584.958 217.946 585.019 215.372Q585.08 212.798 585.058 210.223Q585.036 207.648 584.931 205.075Q584.826 202.503 584.638 199.935Q584.45 197.367 584.179 194.806Q583.909 192.246 583.555 189.695Q583.202 187.145 582.766 184.607Q582.331 182.069 581.814 179.547Q581.296 177.024 580.698 174.52C578.215 164.243 574.571 154.243 571.153 144.249ZM772.063 386.929C783.036 385.132 791.84 380.343 798.459 371.25Q799.059 370.432 799.618 369.586Q800.177 368.739 800.694 367.867Q801.211 366.994 801.684 366.097Q802.158 365.2 802.587 364.281Q803.017 363.362 803.401 362.423Q803.784 361.484 804.122 360.528Q804.459 359.571 804.75 358.599Q805.04 357.628 805.282 356.643Q805.525 355.658 805.718 354.662Q805.912 353.666 806.057 352.663Q806.203 351.659 806.298 350.649Q806.394 349.639 806.44 348.626Q806.487 347.613 806.483 346.598Q806.48 345.584 806.427 344.571Q806.374 343.558 806.272 342.549Q806.17 341.54 806.018 340.537C804.213 329.281 797.737 319.753 788.528 313.15C780.286 307.24 770.675 305.724 760.743 306.596C748.673 309.153 739.068 313.892 732.233 324.543C726.171 333.991 723.686 344.813 726.187 355.845C728.599 366.491 735.063 376.318 744.38 382.15C752.872 387.466 762.324 388.257 772.063 386.929Z"/>
		<path fill="#F6B01A" d="M761.422 314.641Q762.167 314.548 762.916 314.49Q763.665 314.431 764.416 314.407Q765.167 314.383 765.918 314.393Q766.669 314.403 767.419 314.447Q768.169 314.492 768.916 314.57Q769.663 314.649 770.405 314.762Q771.148 314.875 771.884 315.021Q772.621 315.168 773.35 315.348Q774.08 315.528 774.8 315.741Q775.52 315.955 776.23 316.201Q776.94 316.447 777.637 316.725Q778.335 317.003 779.019 317.313Q779.704 317.623 780.373 317.964Q781.042 318.305 781.696 318.676Q782.349 319.047 782.984 319.447Q783.62 319.848 784.236 320.277Q784.905 320.735 785.552 321.226Q786.198 321.716 786.819 322.237Q787.44 322.759 788.035 323.31Q788.63 323.861 789.198 324.441Q789.765 325.021 790.303 325.628Q790.841 326.235 791.349 326.867Q791.857 327.5 792.333 328.157Q792.809 328.813 793.252 329.492Q793.696 330.172 794.105 330.872Q794.515 331.572 794.89 332.291Q795.264 333.011 795.603 333.748Q795.942 334.485 796.245 335.237Q796.547 335.99 796.812 336.756Q797.078 337.523 797.305 338.302Q797.532 339.08 797.721 339.869Q797.91 340.658 798.06 341.455Q798.202 342.227 798.304 343.006Q798.407 343.784 798.47 344.567Q798.533 345.349 798.556 346.134Q798.58 346.919 798.564 347.704Q798.548 348.489 798.492 349.272Q798.436 350.055 798.341 350.835Q798.246 351.614 798.111 352.387Q797.977 353.161 797.804 353.927Q797.63 354.693 797.419 355.449Q797.207 356.205 796.957 356.949Q796.708 357.693 796.421 358.424Q796.134 359.155 795.811 359.871Q795.487 360.586 795.128 361.284Q794.769 361.983 794.375 362.662Q793.982 363.341 793.554 364Q793.126 364.658 792.666 365.294C787.246 372.937 779.704 377.31 770.557 378.911C762.589 380.098 754.657 378.891 747.794 374.516Q747.089 374.066 746.408 373.582Q745.727 373.098 745.071 372.58Q744.415 372.062 743.786 371.512Q743.156 370.961 742.555 370.38Q741.954 369.799 741.383 369.189Q740.812 368.578 740.273 367.94Q739.733 367.302 739.226 366.637Q738.719 365.973 738.246 365.284Q737.773 364.594 737.335 363.882Q736.897 363.17 736.496 362.437Q736.094 361.704 735.73 360.952Q735.365 360.2 735.039 359.43Q734.713 358.661 734.426 357.876Q734.138 357.091 733.891 356.292Q733.643 355.494 733.436 354.684Q733.229 353.874 733.063 353.055C731.345 344.683 733.817 336.113 738.486 329.111C744.014 320.822 751.807 316.521 761.422 314.641ZM770.111 371.944C777.395 370.479 782.957 367.606 787.253 361.278C790.926 355.867 792.626 349.279 791.294 342.812C789.896 336.022 785.473 329.703 779.688 325.907C774.046 322.204 767.98 321.731 761.446 322.126C754.602 323.471 748.699 326.611 744.637 332.451C740.792 337.98 739.223 345.355 740.611 351.956C742.07 358.901 746.878 365.458 752.942 369.102C758.341 372.346 763.995 372.798 770.111 371.944Z"/>
		<path fill="#F0F5F7" d="M791.479 385.868C791.77 385.916 792.069 385.929 792.351 386.013C794.258 386.578 797.276 391.955 798.293 393.768C799.653 396.19 801.195 399.369 800.407 402.169C799.499 403.386 798.887 403.602 797.52 404.117C793.687 399.042 789.049 394.514 785.932 388.94C787.714 387.786 789.597 386.843 791.479 385.868Z"/>
		<path fill="#F0F5F7" d="M738.461 386.634C739.684 387.083 741.179 387.499 742.301 388.156C743.285 388.732 743.918 389.609 743.999 390.777C744.245 394.304 738.297 400.094 736.111 402.746C734.957 403.772 734.042 404.554 732.438 404.657L731.766 404C731.28 398.423 735.902 391.472 738.461 386.634Z"/>
		<path fill="#F0F5F7" d="M809.219 368.355C812.193 369.823 815.197 371.263 818.119 372.832C820.424 374.07 823.083 375.594 823.875 378.237C823.73 379.803 823.136 380.453 822.165 381.595C818.345 380.261 813.873 378.845 810.362 376.856C808.598 375.856 807.408 374.781 806.839 372.791C807.005 370.966 808.157 369.764 809.219 368.355Z"/>
		<path fill="#F0F5F7" d="M762.071 394.627C763.145 394.491 764.785 394.162 765.831 394.364C766.937 394.578 767.606 395.025 768.253 395.922C770.771 399.411 768.149 408.861 767.503 412.878L766.489 413.38C765.741 413.296 765.309 413.417 764.746 412.84C761.667 409.684 761.766 398.841 762.071 394.627Z"/>
		<path fill="#F0F5F7" d="M711.151 346.19C712.251 346.099 713.568 345.907 714.637 346.231C716.366 346.755 717.449 348.169 718.272 349.667C718.151 350.887 718.193 351.337 717.086 352.104C713.959 354.273 709.168 353.228 705.663 352.864C704.316 352.633 702.786 352.471 701.491 352.037C700.23 351.614 699.555 351.263 698.974 350.07C701.25 347.193 707.62 346.656 711.151 346.19Z"/>
		<path fill="#F0F5F7" d="M730.554 291.787C731.618 291.926 732.611 292.196 733.581 292.657C737.488 294.514 742.155 298.527 743.715 302.567C743.519 304.299 743.212 304.336 742.001 305.503C740.811 306.041 740.181 306.357 738.84 306.244C735.495 304.108 730.932 298.689 729.827 294.864C729.398 293.38 729.823 293.025 730.554 291.787Z"/>
		<path fill="#F0F5F7" d="M721.892 370.408C722.05 370.424 722.211 370.428 722.368 370.457C723.724 370.708 724.513 370.886 725.25 372.172C725.967 373.422 725.788 374.087 725.465 375.366C722.619 378.838 716.752 380.26 712.636 381.841C712.16 381.909 711.456 382.021 710.993 382.026C709.74 382.041 709.424 381.964 708.548 381.178L708.747 379.926C711.891 375.619 717.126 372.607 721.892 370.408Z"/>
		<path fill="#F0F5F7" d="M764.808 281.942C766.431 282.051 767.09 281.97 768.477 282.871C770.551 286.683 771.086 291.492 770.94 295.782C770.887 297.36 770.497 297.653 769.356 298.708C768.654 298.907 767.851 299.195 767.126 299.259C765.719 299.383 765.471 299.235 764.395 298.449C762.25 294.054 764.215 286.76 764.808 281.942Z"/>
		<path fill="#F0F5F7" d="M707.949 316.937C713.382 317.105 718.358 319.17 723.388 321.043C723.714 323.494 723.88 325.475 723.386 327.943C723.081 327.966 722.776 327.995 722.47 328.011C718.58 328.206 713.183 324.724 710.517 322.169C708.781 320.505 708.027 319.35 707.949 316.937Z"/>
		<path fill="#F0F5F7" d="M819.445 316.057C820.11 315.993 820.999 315.843 821.681 315.907C823.029 316.035 823.302 316.142 824.14 317.093C824.111 317.261 824.103 317.434 824.053 317.597C823.03 320.905 814.043 324.93 810.929 326.605C810.487 326.711 809.799 326.712 809.339 326.749C807.91 325.647 807.444 323.714 806.833 322.07C810.816 319.266 814.854 317.631 819.445 316.057Z"/>
		<path fill="#F0F5F7" d="M798.609 292.349C799.883 292.424 800.04 292.198 801.025 293.098C801.067 293.802 801.105 293.871 800.962 294.672C800.305 298.345 795.714 305.001 792.769 307.322C792.026 306.926 791.086 306.519 790.443 305.984C789.456 305.164 789.117 304.493 789.101 303.205C789.054 299.437 795.975 294.501 798.609 292.349Z"/>
		<path fill="#F0F5F7" d="M813.575 344.467C817.076 345.245 827.19 345.603 829.455 348.037C829.378 349.366 829.223 349.296 828.232 350.221C823.496 351.822 818.559 351.833 813.611 351.974C813.434 349.466 813.512 346.976 813.575 344.467Z"/>
		<path fill="#5DCBEE" d="M940.655 509.861L941.257 510.715C941.104 526.128 941.081 541.547 939.679 556.912Q939.343 560.963 938.926 565.007Q938.509 569.05 938.011 573.085Q937.513 577.119 936.934 581.143Q936.355 585.167 935.695 589.178Q935.036 593.189 934.296 597.187Q933.557 601.184 932.737 605.165Q931.917 609.147 931.018 613.111Q930.119 617.076 929.14 621.021Q928.162 624.967 927.104 628.892Q926.047 632.817 924.911 636.72Q923.775 640.623 922.561 644.503Q921.347 648.383 920.056 652.237Q918.765 656.092 917.396 659.92Q916.028 663.747 914.583 667.547Q913.138 671.347 911.617 675.117Q910.096 678.887 908.5 682.625Q906.904 686.364 905.234 690.07Q903.563 693.776 901.818 697.448Q900.074 701.119 898.256 704.755Q896.438 708.391 894.548 711.99Q892.658 715.589 890.696 719.149Q888.733 722.709 886.7 726.23Q884.667 729.75 882.564 733.229Q880.461 736.707 878.288 740.143Q876.116 743.579 873.875 746.971Q871.634 750.362 869.326 753.708Q867.017 757.054 864.642 760.354Q862.267 763.653 859.826 766.903Q857.385 770.154 854.88 773.356Q852.375 776.557 849.806 779.707Q847.237 782.858 844.605 785.956Q841.973 789.054 839.28 792.099C785 853.6 722.729 894.803 644.993 920.572C625.908 926.898 604.938 933.379 584.801 934.626C577.223 928.543 564.534 922.786 555.744 917.588C549.412 913.779 543.684 909.089 537.882 904.537C609.247 900.64 682.185 873.007 740.469 831.987C755.35 821.514 769.479 809.585 782.97 797.387C853.941 733.218 900.29 633.749 905.156 538.298C909.431 534.699 914.434 531.799 918.897 528.398C926.485 522.617 933.577 516.246 940.655 509.861Z"/>
		<path fill="#0E6AB2" d="M440.268 88.6726C440.441 88.6385 440.612 88.5814 440.788 88.5701C443.083 88.4222 447.047 91.2965 449.054 92.4471C463.424 100.686 475.787 109.538 488.194 120.547C481.95 121.225 475.652 121.318 469.393 121.866C456.504 122.993 443.444 124.694 430.723 127.082C364.872 139.444 298.768 173.231 249.405 218.362Q241.022 226.068 233.059 234.206Q225.096 242.344 217.574 250.892Q210.052 259.44 202.993 268.374Q195.934 277.307 189.357 286.602C150.148 342.908 121.391 416.864 118.335 485.788C113.425 488.665 108.873 492.079 104.265 495.407C94.9946 502.402 86.8211 509.677 78.8575 518.156C77.3723 500.525 80.5152 472.301 83.4901 454.45Q84.5547 447.697 85.8218 440.98Q87.089 434.262 88.5576 427.586Q90.0261 420.91 91.6948 414.281Q93.3634 407.651 95.2307 401.075Q97.0979 394.499 99.1621 387.983Q101.226 381.466 103.485 375.014Q105.744 368.562 108.197 362.181Q110.649 355.8 113.292 349.496Q115.935 343.191 118.766 336.969Q121.597 330.747 124.614 324.613Q127.631 318.479 130.831 312.438Q134.032 306.397 137.412 300.456Q140.792 294.514 144.35 288.677Q147.907 282.839 151.639 277.112Q155.37 271.384 159.272 265.771Q163.174 260.158 167.243 254.665Q169.626 251.467 172.068 248.314Q174.511 245.161 177.012 242.055Q179.514 238.949 182.073 235.891Q184.633 232.832 187.249 229.823Q189.866 226.813 192.539 223.853Q195.212 220.893 197.94 217.984Q200.668 215.075 203.45 212.218Q206.233 209.361 209.069 206.557Q211.904 203.752 214.793 201.002Q217.681 198.252 220.62 195.556Q223.559 192.861 226.549 190.221Q229.539 187.582 232.577 184.999Q235.616 182.416 238.703 179.891Q241.79 177.366 244.924 174.9Q248.058 172.433 251.238 170.026Q254.418 167.619 257.642 165.272Q260.867 162.925 264.135 160.64Q267.403 158.354 270.714 156.131Q274.025 153.907 277.377 151.746Q280.729 149.585 284.121 147.488Q287.513 145.391 290.944 143.358Q294.375 141.324 297.844 139.356Q301.312 137.388 304.818 135.486Q308.323 133.583 311.863 131.747Q315.403 129.911 318.978 128.142Q322.552 126.373 326.159 124.672Q329.766 122.97 333.404 121.337Q337.043 119.704 340.711 118.14Q344.38 116.575 348.077 115.08Q351.774 113.585 355.499 112.16Q359.224 110.735 362.975 109.38Q366.726 108.026 370.502 106.742C393.057 98.8601 416.635 92.332 440.268 88.6726Z"/>
		<path fill="#5DCBEE" d="M528.172 81.0705C542.087 82.3086 556.021 82.9955 569.87 85.001C597.358 88.982 627.678 96.0223 653.692 105.535C665.377 109.808 676.703 114.998 688.062 120.057C701.583 126.078 715.132 132.388 727.91 139.888Q732.127 142.324 736.289 144.854Q740.45 147.385 744.554 150.008Q748.658 152.631 752.701 155.346Q756.745 158.061 760.727 160.866Q764.708 163.671 768.626 166.565Q772.543 169.459 776.395 172.44Q780.246 175.421 784.03 178.488Q787.813 181.555 791.527 184.706Q795.241 187.858 798.882 191.092Q802.524 194.326 806.093 197.641Q809.661 200.956 813.154 204.35Q816.646 207.744 820.062 211.217Q823.477 214.689 826.814 218.237Q830.151 221.785 833.407 225.407Q836.663 229.029 839.837 232.723Q843.011 236.417 846.101 240.182Q849.191 243.947 852.195 247.78Q855.2 251.614 858.117 255.513Q861.035 259.413 863.864 263.378Q866.693 267.342 869.433 271.369Q872.172 275.396 874.82 279.484Q877.468 283.572 880.024 287.718Q882.58 291.864 885.041 296.066Q887.503 300.269 889.87 304.526Q892.237 308.782 894.507 313.091Q896.777 317.4 898.95 321.759Q901.123 326.118 903.198 330.525Q905.272 334.931 907.247 339.383Q909.222 343.836 911.096 348.331Q912.97 352.826 914.743 357.363Q916.515 361.899 918.186 366.474Q919.856 371.049 921.423 375.661C927.227 392.626 930.31 410.035 934.815 427.323C929.473 436.029 924.505 444.858 918.366 453.047C913.804 458.77 908.973 464.301 904.239 469.884C901.501 447.691 896.896 421.877 890.724 400.476C875.492 347.666 847.179 297.913 811.336 256.414Q807.747 252.306 804.052 248.294Q800.356 244.282 796.557 240.368Q792.757 236.455 788.856 232.642Q784.954 228.83 780.954 225.122Q776.954 221.413 772.858 217.811Q768.761 214.21 764.572 210.717Q760.382 207.224 756.102 203.842Q751.822 200.461 747.454 197.193Q743.087 193.926 738.635 190.774Q734.183 187.622 729.649 184.589Q725.116 181.555 720.504 178.642Q715.893 175.729 711.206 172.938Q706.519 170.147 701.761 167.48Q697.003 164.813 692.176 162.273Q687.349 159.732 682.457 157.319Q677.565 154.906 672.611 152.623C662.384 147.99 651.748 144.208 641.213 140.34C615.328 130.834 587.757 123.252 560.16 121.222C554.705 111.531 547.542 101.933 540.113 93.6689C536.242 89.3635 531.947 85.4629 528.172 81.0705Z"/>
		<path fill="#27A5DF" d="M119.471 552.946C121.343 555.822 121.616 567.517 122.14 571.793Q124.682 591.958 129.45 611.715Q130.57 616.211 131.799 620.679Q133.028 625.146 134.364 629.583Q135.701 634.02 137.144 638.423Q138.588 642.826 140.137 647.193Q141.686 651.559 143.341 655.888Q144.995 660.216 146.754 664.502Q148.513 668.789 150.375 673.032Q152.237 677.275 154.201 681.472Q156.165 685.669 158.229 689.817Q160.294 693.965 162.459 698.062Q164.624 702.159 166.887 706.202Q169.15 710.246 171.51 714.233Q173.87 718.221 176.326 722.15Q178.781 726.079 181.332 729.948Q183.882 733.816 186.525 737.622Q189.168 741.428 191.902 745.169C249.627 823.506 335.441 875.522 429.819 897.168C442.495 900.076 455.335 901.785 468.181 903.714C476.499 918.361 486.786 929.811 498.038 942.135C489.038 942.068 479.857 940.683 470.879 939.914C460.99 939.854 450.064 937.137 440.324 935.38Q435.086 934.446 429.871 933.387Q424.656 932.329 419.468 931.146Q414.28 929.964 409.122 928.659Q403.964 927.354 398.838 925.926Q393.712 924.499 388.621 922.95Q383.531 921.401 378.478 919.732Q373.426 918.062 368.415 916.273Q363.404 914.484 358.436 912.576Q353.469 910.668 348.548 908.643Q343.628 906.618 338.757 904.476Q333.886 902.335 329.067 900.078Q324.249 897.821 319.485 895.45Q314.721 893.079 310.015 890.596Q305.309 888.113 300.664 885.518Q296.018 882.924 291.436 880.219Q286.853 877.515 282.336 874.703C276.145 870.872 269.787 867.135 263.821 862.962C168.713 796.448 110.9 707.925 90.6992 593.416C99.4867 579.138 109.108 566.101 119.471 552.946Z"/>
		<path fill="#77BA42" d="M506.777 698.135C509.873 698.044 513.483 699.069 515.976 700.933C520.062 703.99 518.949 710.908 516.907 714.815C515.246 717.994 512.562 720.877 510.363 723.714Q505.646 729.704 501.677 736.213C484.363 764.947 478.551 796.816 482.606 829.962C487.465 869.689 511.306 907.318 543.278 930.86C551.581 936.973 562.291 940.876 569.713 946.92C572.174 948.923 574.081 951.517 574.331 954.769C574.566 957.818 573.304 960.708 571.245 962.907C568.776 965.546 566.316 966.378 562.789 966.552C553.925 964.588 538.921 954.888 531.239 949.538C494.762 924.137 468.268 880.552 460.74 836.986C452.908 791.667 464.803 747.848 491.414 710.702C495.412 705.121 499.608 699.322 506.777 698.135Z"/>
		<path fill="#27A5DF" d="M455.564 55.5428C458.559 55.2098 460.58 55.4715 463.407 56.5715C470.608 59.373 477.623 64.0303 484.091 68.2495C512.869 87.0207 537.521 112.63 551.629 144.289C569.115 183.53 571.742 229.123 556.133 269.458C549.314 287.078 540.29 303.338 529.544 318.853C526.704 322.954 523.409 328.836 518.725 330.894C517.558 330.956 516.388 331.018 515.219 331.004C512.594 330.974 509.663 330.037 507.828 328.078C505.115 325.182 505.249 321.808 505.236 318.118C508.298 312.15 513.07 306.531 516.775 300.902C526.302 286.43 534.419 270.975 539.348 254.308C557.763 192.045 533.609 128.825 481.574 91.2523C475.529 86.8872 469.113 83.1734 462.624 79.522C458.866 77.4074 454.418 75.4066 451.085 72.6582C450.118 71.8602 449.42 70.8673 448.862 69.7503C447.643 67.3133 447.6 64.5976 448.545 62.0696C449.92 58.3907 452.07 57.0266 455.564 55.5428Z"/>
		<path fill="#F6B01A" d="M953.216 436.052C956.203 435.881 958.19 436.158 960.915 437.481C962.887 438.438 964.241 439.838 964.852 441.968C966.725 448.491 961.584 456.285 958.369 461.644C934.066 502.165 892.209 531.661 846.538 542.874C801.259 553.99 751.318 545.681 711.605 521.549C707.643 519.241 703.952 516.742 702.011 512.395C700.752 509.576 700.377 505.839 701.63 502.949C702.605 500.7 704.477 499.323 706.731 498.506C708.509 497.862 710.716 497.372 712.606 497.708C718.517 498.759 724.388 503.993 729.551 507.004C732.69 508.835 735.964 510.454 739.239 512.027C797.37 539.947 872.358 526.612 917.26 480.294C924.744 472.574 932.328 463.828 938.088 454.768C941.157 449.943 943.458 444.051 947.084 439.682C948.759 437.663 950.8 436.898 953.216 436.052Z"/>
		<path fill="#27A5DF" d="M207.225 475.708C216.359 474.542 227.088 475.192 236.197 476.193C261.779 479.005 286.187 487.294 308.812 499.422C313.574 501.974 319.696 504.763 323.007 509.142C324.548 511.179 325.371 513.724 324.871 516.271C324.316 519.102 322.232 522.13 319.767 523.642C317.561 524.996 314.361 524.955 311.983 524.116C306.236 522.088 300.525 517.811 295.046 514.976Q290.011 512.346 284.815 510.052Q279.619 507.757 274.284 505.808Q268.949 503.859 263.498 502.264Q258.046 500.669 252.502 499.434C211.29 490.274 169.801 498.131 134.23 520.723C116.178 532.115 98.7738 549.86 87.2694 567.74C83.6119 573.424 81.2657 580.255 77.3234 585.607C75.2369 588.439 72.4793 590.423 68.9299 590.872C66.2316 591.212 63.3802 590.626 61.2791 588.829C59.1905 587.043 58.0649 584.421 57.8279 581.717C56.9168 571.32 77.8105 544.253 84.864 536.234Q86.3068 534.588 87.7895 532.978Q89.2721 531.368 90.7937 529.795Q92.3154 528.222 93.875 526.687Q95.4347 525.151 97.0315 523.654Q98.6282 522.158 100.261 520.7Q101.894 519.243 103.562 517.826Q105.23 516.409 106.933 515.034Q108.635 513.658 110.37 512.325Q112.106 510.991 113.873 509.7Q115.641 508.41 117.44 507.163Q119.238 505.916 121.067 504.713Q122.895 503.51 124.753 502.353Q126.61 501.195 128.496 500.084Q130.381 498.972 132.293 497.907Q134.205 496.842 136.142 495.823Q138.08 494.805 140.041 493.835Q142.003 492.865 143.988 491.942Q145.973 491.02 147.98 490.147Q149.987 489.274 152.014 488.45Q154.042 487.626 156.089 486.852Q158.137 486.078 160.202 485.355Q162.268 484.631 164.35 483.958Q166.433 483.285 168.531 482.664Q170.63 482.042 172.743 481.472Q174.856 480.902 176.982 480.384Q179.109 479.865 181.247 479.399Q183.386 478.933 185.535 478.52Q187.684 478.106 189.843 477.745Q192.001 477.384 194.168 477.077Q196.335 476.769 198.509 476.514Q200.683 476.259 202.862 476.058Q205.041 475.856 207.225 475.708Z"/>
	</g>
	<g>
		<path fill="rgba(240,245,247,0)" d="M0 0L1024 0L1024 1024L0 1024L0 0ZM140.371 475.178C151.713 470.217 162.724 465.953 174.744 462.885C184.003 461.171 193.281 459.38 202.674 458.565C229.38 456.247 258.037 460.197 282.937 470.047C284.803 459.505 287.991 449.646 291.57 439.583Q292.312 437.454 293.096 435.34Q293.879 433.226 294.703 431.128Q295.527 429.029 296.391 426.947Q297.256 424.865 298.16 422.8Q299.065 420.735 300.009 418.687Q300.953 416.64 301.937 414.612Q302.92 412.583 303.943 410.574Q304.965 408.565 306.027 406.575Q307.088 404.586 308.187 402.618Q309.287 400.65 310.424 398.703Q311.561 396.757 312.736 394.832Q313.91 392.908 315.122 391.007Q316.334 389.105 317.582 387.228Q318.83 385.351 320.114 383.497Q321.398 381.644 322.718 379.817Q324.037 377.989 325.392 376.187Q326.747 374.385 328.136 372.609Q329.525 370.834 330.949 369.085Q332.372 367.337 333.829 365.616Q335.286 363.896 336.776 362.204Q338.265 360.512 339.788 358.849Q341.31 357.186 342.864 355.552Q344.418 353.919 346.003 352.316Q347.589 350.713 349.205 349.141Q350.821 347.569 352.467 346.029Q354.113 344.488 355.788 342.98Q357.464 341.471 359.168 339.996Q360.873 338.52 362.605 337.077Q364.338 335.635 366.098 334.226Q367.858 332.817 369.645 331.443Q371.432 330.068 373.245 328.728Q375.058 327.389 376.897 326.084C417.754 297.585 456.829 284.892 506.503 283.216C524.472 252.909 532.52 216.761 523.772 181.993C520.327 168.298 514.226 153.837 505.866 142.403C501.433 142.477 496.93 142.391 492.514 142.786C483.627 143.295 474.615 143.499 465.765 144.432C450.025 146.092 434.007 149.21 418.646 152.983C351.243 169.535 284.016 209.678 237.79 261.539C195.593 308.88 163.692 366.051 148.599 427.87C144.805 443.412 142.381 459.317 140.371 475.178ZM139.413 538.598C142.456 587.004 152.277 634.924 174.016 678.595C178.265 687.13 183.263 695.295 188.095 703.506Q191.652 709.689 195.465 715.718Q199.277 721.746 203.34 727.609Q207.403 733.473 211.708 739.16Q216.014 744.847 220.554 750.349Q225.094 755.851 229.861 761.157Q234.629 766.463 239.615 771.564Q244.6 776.666 249.796 781.553Q254.992 786.441 260.388 791.106C289.682 816.912 325.379 838.769 361.291 854.002C377.318 860.8 393.716 866.225 410.379 871.209C425.061 875.582 440.22 878.986 455.516 880.259C436.372 829.807 435.547 782.099 457.745 732.329C457.601 732.251 457.458 732.17 457.312 732.096C450.741 728.735 441.819 727.549 434.68 725.347C425.631 722.556 416.817 718.616 408.232 714.656C363.911 694.212 325.157 654.531 303.481 611.086C298.563 601.228 294.698 590.666 291.161 580.239C287.274 568.779 285.055 556.973 283.45 545.002C282.654 539.061 282.356 532.805 280.878 526.996C259.102 517.248 235.424 511.632 211.411 513.721C190.958 514.551 171.63 520.45 153.532 529.847C148.704 532.353 143.544 535.026 139.413 538.598ZM522.664 886.189C522.841 886.149 523.017 886.106 523.194 886.067C531.529 884.259 540.699 884.393 549.201 883.52C562.83 882.121 576.668 879.811 590.029 876.772Q593.849 875.929 597.651 875.007Q601.453 874.084 605.235 873.083Q609.017 872.082 612.777 871.002Q616.537 869.922 620.274 868.764Q624.011 867.606 627.723 866.37Q631.435 865.134 635.12 863.822Q638.805 862.509 642.463 861.12Q646.12 859.731 649.747 858.266Q653.375 856.801 656.971 855.26Q660.567 853.72 664.13 852.105Q667.694 850.49 671.223 848.802Q674.751 847.113 678.244 845.351Q681.737 843.589 685.193 841.755Q688.648 839.921 692.065 838.015Q695.482 836.109 698.858 834.132Q702.234 832.156 705.568 830.109Q708.902 828.063 712.193 825.947Q715.484 823.832 718.73 821.648Q721.976 819.464 725.176 817.214Q728.376 814.963 731.528 812.646Q734.68 810.329 737.783 807.947Q740.887 805.565 743.94 803.119Q746.993 800.672 749.994 798.163Q752.996 795.654 755.944 793.083Q758.893 790.511 761.787 787.879Q764.681 785.247 767.52 782.555Q770.359 779.863 773.141 777.113Q775.923 774.363 778.647 771.555Q781.372 768.747 784.037 765.883Q786.702 763.019 789.307 760.1Q791.912 757.182 794.455 754.209Q796.999 751.237 799.48 748.212C806.755 739.315 813.878 730.484 820.198 720.863C848.864 677.224 869.628 628.605 878.597 577.07C879.785 570.242 882.365 557.369 881.885 551.001C881.63 550.811 881.403 550.546 881.096 550.464Q879.014 551.348 876.913 552.182Q874.811 553.017 872.69 553.802Q870.569 554.587 868.431 555.322Q866.292 556.058 864.137 556.742Q861.982 557.427 859.811 558.061Q857.64 558.696 855.455 559.279Q853.27 559.862 851.072 560.393Q848.874 560.925 846.664 561.405Q844.454 561.885 842.234 562.313Q840.013 562.742 837.783 563.117Q835.553 563.493 833.315 563.817Q831.077 564.141 828.832 564.411Q826.586 564.682 824.336 564.901Q822.085 565.119 819.829 565.285Q817.574 565.45 815.315 565.563Q813.057 565.675 810.796 565.735Q808.535 565.794 806.274 565.801Q804.013 565.808 801.752 565.761Q799.491 565.715 797.231 565.615Q794.972 565.516 792.716 565.364Q790.459 565.211 788.207 565.006Q785.955 564.801 783.708 564.543Q781.462 564.285 779.222 563.974Q776.982 563.664 774.75 563.301Q772.517 562.938 770.294 562.523Q768.071 562.108 765.859 561.641Q763.646 561.173 761.445 560.655Q759.244 560.136 757.056 559.565Q754.867 558.995 752.693 558.373Q750.518 557.752 748.359 557.08Q746.2 556.407 744.057 555.685Q741.914 554.962 739.789 554.189C727.532 618.949 690.237 668.635 636.51 705.393C603.563 727.934 560.086 742.295 520.01 741.462C500.954 767.253 495.401 799.927 499.994 831.253C501.77 843.367 504.901 854.333 510.259 865.367C513.773 872.574 517.417 880.064 522.664 886.189ZM567.471 286.515C614.308 300.876 645.779 318.299 679.769 353.972C693.012 367.87 704.798 382.89 713.8 399.904C725.717 422.428 734.537 446.26 738.679 471.462C739.969 479.306 740.144 487.351 741.508 495.144C780.304 511.611 818.216 512.783 857.874 498.512C866.812 495.082 876.489 490.615 884.311 485.006C882.937 447.649 873.411 411.985 860.042 377.23C856.462 367.922 852.918 358.526 848.521 349.569C845.5 343.414 841.908 337.507 838.519 331.547C820.653 300.136 798.891 270.349 772.341 245.663C723.806 200.535 672.865 170.07 608.681 152.63C597.834 149.683 582.193 145.507 571.153 144.249C574.571 154.243 578.215 164.243 580.698 174.52Q581.296 177.024 581.814 179.547Q582.331 182.069 582.766 184.607Q583.202 187.145 583.555 189.695Q583.909 192.246 584.179 194.806Q584.45 197.367 584.638 199.935Q584.826 202.503 584.931 205.075Q585.036 207.648 585.058 210.223Q585.08 212.798 585.019 215.372Q584.958 217.946 584.813 220.517Q584.669 223.088 584.442 225.652Q584.214 228.217 583.904 230.773Q583.594 233.329 583.202 235.874Q582.81 238.419 582.336 240.95Q581.861 243.481 581.306 245.995Q580.75 248.509 580.113 251.004Q579.477 253.499 578.76 255.972Q576.078 265.117 572.514 273.955C570.838 278.081 568.712 282.246 567.471 286.515ZM518.725 330.894C523.409 328.836 526.704 322.954 529.544 318.853C540.29 303.338 549.314 287.078 556.133 269.458C571.742 229.123 569.115 183.53 551.629 144.289C537.521 112.63 512.869 87.0207 484.091 68.2495C477.623 64.0303 470.608 59.373 463.407 56.5715C460.58 55.4715 458.559 55.2098 455.564 55.5428C452.07 57.0266 449.92 58.3907 448.545 62.0696C447.6 64.5976 447.643 67.3133 448.862 69.7503C449.42 70.8673 450.118 71.8602 451.085 72.6582C454.418 75.4066 458.866 77.4074 462.624 79.522C469.113 83.1734 475.529 86.8872 481.574 91.2523C533.609 128.825 557.763 192.045 539.348 254.308C534.419 270.975 526.302 286.43 516.775 300.902C513.07 306.531 508.298 312.15 505.236 318.118C505.249 321.808 505.115 325.182 507.828 328.078C509.663 330.037 512.594 330.974 515.219 331.004C516.388 331.018 517.558 330.956 518.725 330.894ZM522.123 684.363C569.745 680.541 614.048 659.897 645.366 623.331Q646.687 621.758 647.969 620.153Q649.251 618.549 650.494 616.913Q651.737 615.278 652.941 613.614Q654.144 611.949 655.306 610.256Q656.469 608.562 657.591 606.841Q658.712 605.121 659.791 603.373Q660.871 601.626 661.908 599.853Q662.945 598.079 663.938 596.282Q664.932 594.484 665.882 592.663Q666.832 590.842 667.738 588.999Q668.644 587.155 669.505 585.29Q670.366 583.425 671.182 581.54Q671.997 579.655 672.767 577.751Q673.537 575.847 674.261 573.924Q674.984 572.002 675.661 570.063Q676.338 568.124 676.968 566.168Q677.598 564.213 678.18 562.244Q678.763 560.274 679.298 558.291Q679.832 556.308 680.319 554.312Q680.806 552.317 681.244 550.31Q681.682 548.303 682.072 546.286Q682.462 544.27 682.802 542.244Q683.143 540.219 683.435 538.186Q683.727 536.152 683.969 534.113Q684.212 532.073 684.405 530.028Q684.598 527.983 684.742 525.934Q684.886 523.885 684.98 521.833Q685.074 519.782 685.118 517.728Q685.163 515.675 685.158 513.621Q685.153 511.567 685.098 509.513Q685.043 507.46 684.939 505.409Q684.835 503.357 684.681 501.309Q684.497 499.198 684.262 497.092Q684.027 494.986 683.741 492.886Q683.455 490.786 683.118 488.694Q682.781 486.602 682.393 484.518Q682.006 482.435 681.568 480.361Q681.13 478.288 680.642 476.226Q680.154 474.163 679.616 472.114Q679.078 470.064 678.491 468.028Q677.904 465.991 677.267 463.97Q676.63 461.949 675.945 459.944Q675.26 457.938 674.526 455.95Q673.792 453.962 673.01 451.992Q672.229 450.023 671.399 448.072Q670.57 446.122 669.694 444.193Q668.818 442.263 667.895 440.355Q666.972 438.448 666.004 436.563Q665.035 434.678 664.021 432.817Q663.006 430.956 661.948 429.121Q660.889 427.285 659.785 425.476Q658.682 423.666 657.536 421.884Q656.389 420.102 655.2 418.348Q654.01 416.594 652.779 414.87Q651.547 413.145 650.274 411.451Q649.001 409.757 647.687 408.094Q646.373 406.431 645.02 404.801Q643.666 403.17 642.273 401.573Q640.88 399.976 639.449 398.413Q638.018 396.85 636.55 395.322Q635.081 393.794 633.576 392.302Q632.071 390.81 630.53 389.356Q628.989 387.901 627.413 386.484Q625.838 385.066 624.228 383.688C592.252 356.394 546.572 338.34 504.187 341.142C503.926 341.159 503.666 341.191 503.405 341.215Q501.234 341.341 499.067 341.52Q496.9 341.699 494.738 341.932Q492.576 342.165 490.42 342.452Q488.265 342.738 486.117 343.078Q483.969 343.417 481.831 343.81Q479.692 344.203 477.563 344.649Q475.435 345.094 473.319 345.593Q471.202 346.091 469.098 346.641Q466.995 347.192 464.905 347.794Q462.816 348.397 460.742 349.051Q458.668 349.705 456.611 350.41Q454.554 351.115 452.515 351.871Q450.476 352.627 448.457 353.433Q446.437 354.239 444.438 355.095Q442.439 355.951 440.462 356.856Q438.485 357.761 436.531 358.715Q434.577 359.668 432.647 360.67Q430.717 361.672 428.812 362.722Q426.908 363.771 425.03 364.867Q423.152 365.964 421.302 367.106Q419.452 368.248 417.63 369.436Q415.809 370.624 414.017 371.857Q412.226 373.089 410.466 374.366Q408.705 375.643 406.977 376.963Q405.249 378.282 403.554 379.645Q401.859 381.007 400.199 382.411Q398.538 383.814 396.913 385.259Q395.287 386.703 393.698 388.188Q392.109 389.672 390.557 391.195Q389.005 392.718 387.491 394.279Q385.978 395.841 384.503 397.439Q383.029 399.037 381.594 400.671Q380.233 402.214 378.91 403.791Q377.586 405.367 376.303 406.975Q375.019 408.584 373.775 410.223Q372.531 411.863 371.328 413.532Q370.125 415.202 368.963 416.9Q367.802 418.599 366.682 420.326Q365.563 422.053 364.486 423.807Q363.41 425.561 362.377 427.34Q361.344 429.12 360.355 430.925Q359.366 432.73 358.422 434.558Q357.477 436.387 356.578 438.238Q355.68 440.089 354.827 441.962Q353.974 443.835 353.167 445.728Q352.36 447.621 351.6 449.534Q350.841 451.446 350.128 453.377Q349.416 455.308 348.751 457.255Q348.086 459.203 347.469 461.166Q346.853 463.13 346.285 465.108Q345.717 467.086 345.197 469.077Q344.678 471.068 344.208 473.072Q343.738 475.075 343.318 477.09Q342.897 479.104 342.526 481.129Q342.155 483.153 341.835 485.186Q341.514 487.218 341.243 489.258Q340.972 491.298 340.752 493.345Q340.531 495.391 340.362 497.442Q340.192 499.492 340.072 501.547Q339.953 503.601 339.884 505.658Q339.815 507.715 339.797 509.773Q339.779 511.831 339.811 513.888Q339.844 515.946 339.927 518.002Q340.01 520.058 340.144 522.112Q340.269 524.226 340.446 526.337Q340.624 528.448 340.853 530.554Q341.082 532.659 341.363 534.759Q341.644 536.858 341.977 538.95Q342.309 541.042 342.693 543.125Q343.077 545.208 343.513 547.281Q343.948 549.354 344.434 551.416Q344.921 553.477 345.458 555.526Q345.995 557.575 346.582 559.61Q347.169 561.646 347.807 563.666Q348.444 565.686 349.131 567.689Q349.818 569.693 350.554 571.679Q351.29 573.665 352.074 575.633Q352.859 577.6 353.692 579.548Q354.525 581.495 355.406 583.422Q356.287 585.348 357.215 587.252Q358.143 589.156 359.118 591.037Q360.092 592.917 361.113 594.773Q362.134 596.629 363.2 598.46Q364.266 600.29 365.377 602.094Q366.488 603.897 367.643 605.673Q368.798 607.448 369.996 609.195Q371.195 610.941 372.436 612.658Q373.677 614.374 374.96 616.06Q376.243 617.745 377.567 619.398Q378.891 621.051 380.256 622.671Q381.62 624.291 383.025 625.877Q384.429 627.463 385.871 629.014Q387.314 630.565 388.795 632.08Q390.275 633.595 391.793 635.073Q393.31 636.551 394.863 637.991Q396.417 639.431 398.005 640.832C432.836 671.382 475.841 686.358 522.123 684.363ZM118.335 485.788C121.391 416.864 150.148 342.908 189.357 286.602Q195.934 277.307 202.993 268.374Q210.052 259.44 217.574 250.892Q225.096 242.344 233.059 234.206Q241.022 226.068 249.405 218.362C298.768 173.231 364.872 139.444 430.723 127.082C443.444 124.694 456.504 122.993 469.393 121.866C475.652 121.318 481.95 121.225 488.194 120.547C475.787 109.538 463.424 100.686 449.054 92.4471C447.047 91.2965 443.083 88.4222 440.788 88.5701C440.612 88.5814 440.441 88.6385 440.268 88.6726C416.635 92.332 393.057 98.8601 370.502 106.742Q366.726 108.026 362.975 109.38Q359.224 110.735 355.499 112.16Q351.774 113.585 348.077 115.08Q344.38 116.575 340.711 118.14Q337.043 119.704 333.404 121.337Q329.766 122.97 326.159 124.672Q322.552 126.373 318.978 128.142Q315.403 129.911 311.863 131.747Q308.323 133.583 304.818 135.486Q301.312 137.388 297.844 139.356Q294.375 141.325 290.944 143.358Q287.513 145.391 284.121 147.488Q280.729 149.585 277.377 151.746Q274.025 153.907 270.714 156.131Q267.403 158.354 264.135 160.64Q260.867 162.925 257.642 165.272Q254.418 167.619 251.238 170.026Q248.058 172.433 244.924 174.9Q241.79 177.366 238.703 179.891Q235.616 182.416 232.577 184.999Q229.539 187.582 226.549 190.221Q223.559 192.861 220.62 195.556Q217.681 198.252 214.793 201.002Q211.904 203.752 209.069 206.557Q206.233 209.361 203.45 212.218Q200.668 215.075 197.94 217.984Q195.212 220.893 192.539 223.853Q189.866 226.813 187.249 229.823Q184.633 232.832 182.073 235.891Q179.514 238.949 177.012 242.055Q174.511 245.161 172.068 248.314Q169.626 251.467 167.243 254.665Q163.174 260.158 159.272 265.771Q155.37 271.384 151.639 277.112Q147.907 282.839 144.35 288.677Q140.792 294.514 137.412 300.456Q134.032 306.397 130.831 312.438Q127.631 318.479 124.614 324.613Q121.597 330.747 118.766 336.969Q115.935 343.191 113.292 349.496Q110.649 355.8 108.197 362.181Q105.744 368.562 103.485 375.014Q101.226 381.466 99.1621 387.983Q97.0979 394.499 95.2307 401.075Q93.3635 407.651 91.6948 414.281Q90.0261 420.91 88.5576 427.586Q87.089 434.262 85.8218 440.98Q84.5547 447.697 83.4901 454.45C80.5152 472.301 77.3723 500.525 78.8575 518.156C86.8211 509.677 94.9946 502.402 104.265 495.407C108.873 492.079 113.425 488.665 118.335 485.788ZM468.181 903.714C455.335 901.785 442.495 900.076 429.819 897.168C335.441 875.522 249.627 823.506 191.902 745.169Q189.168 741.428 186.525 737.622Q183.882 733.816 181.332 729.948Q178.781 726.079 176.326 722.15Q173.87 718.221 171.51 714.233Q169.15 710.246 166.887 706.202Q164.624 702.159 162.459 698.062Q160.294 693.965 158.23 689.817Q156.165 685.669 154.201 681.472Q152.237 677.275 150.375 673.032Q148.513 668.789 146.754 664.502Q144.996 660.216 143.341 655.888Q141.686 651.559 140.137 647.193Q138.588 642.826 137.144 638.423Q135.701 634.02 134.364 629.583Q133.028 625.146 131.799 620.679Q130.57 616.211 129.45 611.715Q124.681 591.958 122.14 571.793C121.616 567.517 121.343 555.822 119.471 552.946C109.108 566.101 99.4867 579.138 90.6992 593.416C110.9 707.925 168.713 796.448 263.821 862.962C269.787 867.135 276.145 870.872 282.336 874.703Q286.853 877.515 291.436 880.219Q296.018 882.924 300.664 885.518Q305.31 888.113 310.015 890.596Q314.721 893.079 319.485 895.45Q324.249 897.821 329.067 900.078Q333.886 902.334 338.757 904.476Q343.628 906.618 348.549 908.643Q353.469 910.668 358.436 912.576Q363.404 914.484 368.415 916.273Q373.426 918.062 378.478 919.731Q383.531 921.401 388.621 922.95Q393.712 924.499 398.838 925.926Q403.964 927.354 409.122 928.659Q414.28 929.964 419.468 931.146Q424.656 932.328 429.871 933.387Q435.086 934.446 440.324 935.38C450.064 937.137 460.99 939.854 470.879 939.914C479.857 940.683 489.038 942.068 498.038 942.135C486.786 929.811 476.499 918.361 468.181 903.714ZM934.815 427.323C930.31 410.035 927.227 392.626 921.423 375.661Q919.856 371.049 918.186 366.474Q916.515 361.899 914.743 357.363Q912.97 352.826 911.096 348.331Q909.221 343.836 907.247 339.384Q905.272 334.931 903.197 330.525Q901.123 326.118 898.95 321.759Q896.777 317.4 894.507 313.091Q892.237 308.782 889.87 304.526Q887.503 300.269 885.042 296.066Q882.58 291.864 880.024 287.718Q877.469 283.572 874.82 279.484Q872.172 275.396 869.433 271.369Q866.693 267.342 863.864 263.378Q861.035 259.413 858.117 255.513Q855.2 251.614 852.195 247.78Q849.191 243.947 846.101 240.182Q843.011 236.417 839.837 232.723Q836.663 229.029 833.407 225.407Q830.151 221.785 826.814 218.237Q823.477 214.689 820.062 211.217Q816.646 207.744 813.153 204.35Q809.661 200.956 806.092 197.641Q802.524 194.326 798.883 191.092Q795.241 187.858 791.527 184.706Q787.813 181.555 784.03 178.488Q780.246 175.421 776.395 172.44Q772.543 169.459 768.626 166.565Q764.708 163.671 760.727 160.866Q756.745 158.061 752.701 155.346Q748.658 152.631 744.554 150.008Q740.45 147.385 736.289 144.854Q732.127 142.324 727.91 139.888C715.132 132.388 701.583 126.078 688.062 120.057C676.703 114.998 665.377 109.808 653.692 105.535C627.678 96.0223 597.358 88.982 569.87 85.001C556.021 82.9955 542.087 82.3086 528.172 81.0705C531.947 85.4629 536.242 89.3635 540.113 93.6689C547.542 101.933 554.705 111.531 560.16 121.222C587.757 123.252 615.328 130.834 641.213 140.34C651.748 144.208 662.384 147.99 672.611 152.623Q677.565 154.906 682.457 157.319Q687.349 159.732 692.176 162.273Q697.003 164.813 701.761 167.48Q706.519 170.147 711.206 172.938Q715.893 175.729 720.504 178.642Q725.116 181.555 729.649 184.589Q734.183 187.622 738.635 190.774Q743.087 193.926 747.454 197.193Q751.822 200.461 756.102 203.842Q760.382 207.224 764.572 210.717Q768.761 214.21 772.858 217.811Q776.954 221.413 780.954 225.122Q784.954 228.83 788.856 232.642Q792.757 236.455 796.557 240.368Q800.356 244.282 804.052 248.294Q807.747 252.306 811.336 256.414C847.179 297.913 875.492 347.666 890.724 400.476C896.896 421.877 901.501 447.691 904.239 469.884C908.973 464.301 913.804 458.77 918.366 453.047C924.505 444.858 929.473 436.029 934.815 427.323ZM562.789 966.552C566.316 966.378 568.776 965.546 571.245 962.907C573.304 960.708 574.566 957.818 574.331 954.769C574.081 951.517 572.174 948.923 569.713 946.92C562.291 940.876 551.581 936.973 543.278 930.86C511.306 907.318 487.465 869.689 482.606 829.962C478.551 796.816 484.363 764.947 501.677 736.213Q505.646 729.704 510.363 723.714C512.562 720.877 515.246 717.994 516.907 714.815C518.949 710.908 520.062 703.99 515.976 700.933C513.483 699.069 509.873 698.044 506.777 698.135C499.608 699.322 495.412 705.121 491.414 710.702C464.803 747.848 452.908 791.667 460.74 836.986C468.268 880.552 494.762 924.137 531.239 949.538C538.921 954.888 553.925 964.588 562.789 966.552ZM905.156 538.298C900.29 633.749 853.941 733.218 782.97 797.387C769.479 809.585 755.35 821.514 740.469 831.987C682.185 873.007 609.247 900.64 537.882 904.537C543.684 909.089 549.412 913.779 555.744 917.588C564.534 922.786 577.223 928.543 584.801 934.626C604.938 933.379 625.908 926.898 644.993 920.572C722.729 894.803 785 853.6 839.28 792.099Q841.973 789.054 844.605 785.956Q847.237 782.858 849.806 779.707Q852.375 776.557 854.88 773.355Q857.385 770.154 859.826 766.903Q862.267 763.653 864.642 760.354Q867.017 757.054 869.326 753.708Q871.634 750.362 873.875 746.971Q876.116 743.579 878.288 740.143Q880.461 736.707 882.564 733.229Q884.667 729.75 886.7 726.23Q888.733 722.709 890.696 719.149Q892.658 715.589 894.548 711.99Q896.438 708.391 898.256 704.755Q900.074 701.119 901.819 697.448Q903.563 693.776 905.234 690.07Q906.905 686.364 908.5 682.625Q910.097 678.887 911.617 675.117Q913.138 671.347 914.583 667.547Q916.028 663.747 917.396 659.92Q918.765 656.092 920.056 652.237Q921.347 648.383 922.561 644.503Q923.775 640.624 924.911 636.72Q926.047 632.817 927.104 628.892Q928.162 624.967 929.14 621.021Q930.119 617.076 931.018 613.111Q931.918 609.147 932.737 605.165Q933.557 601.184 934.296 597.187Q935.036 593.189 935.695 589.178Q936.355 585.167 936.934 581.143Q937.513 577.119 938.011 573.085Q938.509 569.05 938.926 565.007Q939.343 560.963 939.679 556.912C941.081 541.547 941.104 526.128 941.257 510.715L940.655 509.861C933.577 516.246 926.485 522.617 918.897 528.398C914.434 531.799 909.431 534.699 905.156 538.298ZM953.216 436.052C950.8 436.898 948.759 437.663 947.084 439.682C943.458 444.051 941.157 449.943 938.088 454.768C932.328 463.828 924.744 472.574 917.26 480.294C872.358 526.612 797.37 539.947 739.239 512.027C735.964 510.454 732.69 508.835 729.551 507.004C724.388 503.993 718.517 498.759 712.606 497.708C710.716 497.372 708.509 497.862 706.731 498.506C704.477 499.323 702.605 500.7 701.63 502.949C700.377 505.839 700.752 509.576 702.011 512.395C703.952 516.742 707.643 519.241 711.605 521.549C751.318 545.681 801.259 553.99 846.538 542.874C892.209 531.661 934.066 502.165 958.369 461.644C961.584 456.285 966.725 448.491 964.852 441.968C964.241 439.838 962.887 438.438 960.915 437.481C958.19 436.158 956.203 435.881 953.216 436.052ZM134.23 520.723C169.801 498.131 211.29 490.274 252.502 499.434Q258.046 500.669 263.498 502.264Q268.949 503.859 274.284 505.808Q279.619 507.757 284.815 510.052Q290.011 512.346 295.046 514.976C300.525 517.811 306.236 522.088 311.983 524.116C314.361 524.955 317.561 524.996 319.767 523.642C322.232 522.13 324.316 519.102 324.871 516.271C325.371 513.724 324.548 511.179 323.007 509.142C319.696 504.763 313.574 501.974 308.812 499.422C286.187 487.294 261.779 479.005 236.197 476.193C227.088 475.192 216.359 474.542 207.225 475.708Q205.041 475.856 202.862 476.058Q200.683 476.259 198.509 476.514Q196.335 476.769 194.168 477.077Q192.001 477.384 189.843 477.745Q187.684 478.106 185.535 478.52Q183.386 478.933 181.247 479.399Q179.109 479.865 176.982 480.383Q174.856 480.902 172.743 481.472Q170.63 482.042 168.531 482.664Q166.433 483.285 164.35 483.958Q162.268 484.631 160.202 485.355Q158.137 486.078 156.089 486.852Q154.042 487.626 152.014 488.45Q149.987 489.274 147.98 490.147Q145.973 491.02 143.988 491.942Q142.003 492.865 140.041 493.835Q138.08 494.805 136.142 495.823Q134.205 496.842 132.293 497.907Q130.381 498.972 128.496 500.084Q126.61 501.195 124.753 502.353Q122.895 503.51 121.067 504.713Q119.238 505.916 117.44 507.163Q115.641 508.41 113.873 509.7Q112.106 510.991 110.37 512.325Q108.635 513.658 106.933 515.034Q105.23 516.409 103.562 517.826Q101.894 519.243 100.261 520.7Q98.6282 522.158 97.0315 523.654Q95.4347 525.151 93.875 526.687Q92.3154 528.222 90.7937 529.795Q89.2721 531.368 87.7895 532.978Q86.3068 534.588 84.864 536.234C77.8105 544.253 56.9168 571.32 57.8279 581.717C58.0649 584.421 59.1905 587.043 61.2791 588.829C63.3802 590.626 66.2316 591.212 68.9299 590.872C72.4793 590.423 75.2369 588.439 77.3234 585.607C81.2657 580.255 83.6119 573.424 87.2694 567.74C98.7738 549.86 116.178 532.115 134.23 520.723Z"/>
		<path fill="#F0F5F7" d="M511.702 468.676C523.694 467.256 536.877 471.32 546.952 477.701C561.396 486.851 569.019 500.689 572.724 517.003C583.956 517.688 593.825 520.406 602.001 528.579C609.888 536.463 614.349 547.796 614.327 558.909C614.305 569.926 609.846 579.78 602.051 587.495Q601.004 588.533 599.891 589.5Q598.779 590.468 597.605 591.36Q596.431 592.253 595.202 593.066Q593.972 593.88 592.692 594.611Q591.411 595.343 590.086 595.989Q588.761 596.635 587.396 597.192Q586.031 597.75 584.632 598.217Q583.234 598.684 581.808 599.059C571.227 601.823 558.399 600.842 547.499 600.865L507.969 600.906L467.607 600.638C458.457 600.615 447.794 601.612 438.842 599.58C428.273 597.181 418.288 590.204 412.574 580.988Q412.043 580.117 411.555 579.222Q411.068 578.326 410.625 577.407Q410.182 576.489 409.785 575.549Q409.388 574.61 409.038 573.652Q408.688 572.695 408.385 571.721Q408.082 570.747 407.828 569.76Q407.573 568.772 407.368 567.773Q407.162 566.774 407.006 565.767Q406.85 564.759 406.744 563.745Q406.637 562.73 406.581 561.712Q406.525 560.694 406.519 559.674Q406.513 558.654 406.557 557.636Q406.601 556.617 406.695 555.601Q406.79 554.586 406.934 553.576Q407.078 552.567 407.272 551.566Q407.465 550.564 407.708 549.574Q407.951 548.583 408.243 547.605Q408.535 546.628 408.875 545.666Q409.215 544.704 409.603 543.76Q409.99 542.816 410.424 541.893Q410.858 540.969 411.338 540.069Q411.817 539.168 412.341 538.292Q412.864 537.417 413.431 536.568Q413.997 535.72 414.605 534.9Q415.213 534.081 415.861 533.293Q416.509 532.505 417.196 531.75Q417.882 530.995 418.605 530.275Q419.328 529.555 420.086 528.872Q420.844 528.189 421.635 527.544Q422.426 526.9 423.248 526.296Q424.07 525.691 424.921 525.128Q425.772 524.566 426.65 524.046C436.871 517.931 448.526 516.174 460.058 519.028C461.186 509.042 464.749 499.917 470.881 491.919C481.154 478.522 495.128 470.957 511.702 468.676Z"/>
		<path fill="#F0F5F7" d="M512.583 352.614Q514.634 352.671 516.683 352.778Q518.733 352.885 520.779 353.042Q522.824 353.199 524.866 353.406Q526.908 353.612 528.944 353.869Q530.979 354.125 533.008 354.431Q535.037 354.737 537.059 355.092Q539.08 355.447 541.091 355.852Q543.103 356.256 545.104 356.709Q547.106 357.162 549.095 357.664Q551.085 358.166 553.062 358.716Q555.039 359.266 557.002 359.864Q558.965 360.462 560.912 361.108Q562.86 361.754 564.791 362.447Q566.723 363.14 568.637 363.879Q570.551 364.619 572.446 365.405Q574.342 366.192 576.217 367.024Q578.093 367.856 579.948 368.733Q581.803 369.611 583.636 370.533Q585.469 371.456 587.279 372.423Q589.089 373.39 590.875 374.4Q592.66 375.411 594.421 376.465Q596.182 377.518 597.916 378.615Q599.651 379.711 601.358 380.85Q603.065 381.988 604.745 383.167Q606.424 384.347 608.073 385.567Q609.723 386.787 611.343 388.047Q612.963 389.307 614.551 390.606Q616.14 391.905 617.696 393.242Q619.252 394.579 620.776 395.954Q622.299 397.329 623.788 398.74Q625.278 400.152 626.732 401.599Q628.187 403.047 629.606 404.529Q630.952 405.961 632.262 407.426Q633.573 408.89 634.848 410.386Q636.122 411.881 637.361 413.407Q638.599 414.933 639.8 416.489Q641.002 418.044 642.165 419.628Q643.328 421.212 644.453 422.823Q645.578 424.435 646.663 426.073Q647.749 427.711 648.795 429.375Q649.841 431.039 650.846 432.727Q651.851 434.416 652.815 436.128Q653.78 437.841 654.703 439.576Q655.625 441.311 656.506 443.068Q657.386 444.825 658.224 446.602Q659.062 448.38 659.857 450.177Q660.652 451.975 661.403 453.791Q662.154 455.607 662.861 457.44Q663.568 459.274 664.231 461.124Q664.894 462.974 665.512 464.84Q666.13 466.705 666.702 468.585Q667.275 470.465 667.802 472.358Q668.329 474.251 668.811 476.157Q669.292 478.062 669.727 479.978Q670.163 481.895 670.552 483.821Q670.941 485.747 671.283 487.683Q671.625 489.618 671.921 491.561Q672.216 493.504 672.465 495.453Q672.713 497.403 672.915 499.357Q673.116 501.312 673.271 503.271Q673.425 505.231 673.532 507.193Q673.639 509.155 673.698 511.119Q673.758 513.084 673.77 515.049Q673.782 517.014 673.747 518.979Q673.391 530.663 671.59 542.212C655.134 541.612 638.544 540.088 622.091 540.16Q621.286 538.119 620.32 536.148Q619.355 534.178 618.236 532.29Q617.117 530.403 615.851 528.611Q614.585 526.818 613.181 525.132C603.726 513.58 592.851 508.301 578.181 506.914C576.033 494.423 569.246 482.685 560.436 473.711C547.227 460.253 531.078 456.03 512.754 455.779C512.122 443.455 512.855 430.887 512.763 418.528C512.601 396.608 511.951 374.519 512.583 352.614Z"/>
		<path fill="#F0F5F7" d="M730.346 658.126C741.907 658.971 737.147 667.189 743.637 670.552C748.796 673.225 753.469 667.724 758.168 666.418C760.16 665.865 762.087 666.168 763.863 667.202C773.702 672.927 766.026 679.194 768.446 684.714C770.386 689.137 778.366 688.987 782.15 691.111C784.271 692.301 785.586 694.165 786.202 696.499C787.852 702.748 783.521 704.777 780.875 709.553C776.782 716.943 788.601 719.021 790.363 727.426C790.839 729.697 790.623 731.787 789.205 733.68C786.414 737.405 782.108 738.327 777.821 738.961C774.237 742.591 771.507 747.189 768.848 751.517C770.516 755.125 771.6 757.984 771.281 762.021C771.117 764.098 770.419 766.03 768.682 767.312C761.622 772.522 753.565 766.396 746.355 765.576C742.211 767.584 741.258 772.48 738.151 775.621C738.043 775.729 737.931 775.832 737.822 775.938C735.261 777.565 732.308 778.841 729.196 778.713C723.324 778.473 722.226 770.832 718.908 767.424C714.893 763.301 704.167 766.665 698.811 766.522L698.066 766.497C697.098 765.848 696.119 765.189 695.3 764.353C690.595 759.545 693.605 756.63 693.454 751.036C693.21 741.995 680.534 742.015 675.423 736.96C674.294 735.843 673.508 734.423 673.545 732.79C673.668 727.281 678.239 722.883 681.936 719.385L681.19 711.694C677.958 708.416 674.114 704.795 673.975 699.841C673.874 696.233 675.851 693.212 678.171 690.65C701.208 687.398 686.661 678.558 693.88 670.437C701.794 661.535 707.867 672.213 714.531 670.946C719.072 670.083 720.312 664.906 722.605 661.648C724.399 659.098 727.5 658.631 730.346 658.126ZM735.817 754.25C747.284 751.121 756.277 746.153 762.374 735.553C766.964 727.573 767.777 717.555 765.362 708.729Q765.135 707.882 764.866 707.048Q764.596 706.213 764.286 705.393Q763.975 704.573 763.624 703.77Q763.272 702.967 762.881 702.182Q762.49 701.397 762.06 700.633Q761.63 699.869 761.162 699.128Q760.694 698.386 760.19 697.669Q759.686 696.952 759.146 696.26Q758.606 695.569 758.033 694.906Q757.459 694.243 756.853 693.609Q756.247 692.976 755.61 692.373Q754.973 691.771 754.307 691.201Q753.64 690.631 752.946 690.095Q752.252 689.56 751.532 689.059Q750.812 688.559 750.068 688.095Q749.323 687.632 748.557 687.206C741.676 683.408 733.514 682.001 725.715 682.635C715.763 684.386 707.619 688.729 701.7 697.084C696.289 704.721 693.676 714.089 695.255 723.394C696.889 733.016 702.581 743.42 710.714 749.027C718.211 754.196 726.919 755.371 735.817 754.25Z"/>
		<path fill="#F0F5F7" d="M729.343 693.184C734.906 692.462 741.106 693.999 745.752 697.077C751.179 700.671 754.757 706.146 755.966 712.532C757.324 719.712 755.792 727.898 751.557 733.89C746.946 740.415 740.304 743.173 732.721 744.494C726.703 744.663 721.25 743.177 716.27 739.724Q715.704 739.33 715.159 738.908Q714.614 738.486 714.091 738.038Q713.568 737.589 713.068 737.115Q712.568 736.64 712.092 736.142Q711.617 735.643 711.167 735.12Q710.717 734.598 710.294 734.054Q709.871 733.51 709.476 732.945Q709.081 732.381 708.715 731.797Q708.348 731.213 708.012 730.612Q707.675 730.01 707.37 729.392Q707.064 728.775 706.789 728.143Q706.515 727.51 706.273 726.865Q706.03 726.22 705.821 725.563Q705.611 724.907 705.435 724.24Q705.259 723.574 705.116 722.9Q704.974 722.226 704.865 721.545C703.857 714.808 705.913 707.992 710.142 702.692C715.18 696.379 721.64 694.144 729.343 693.184Z"/>
		<path fill="#F0F5F7" d="M286.147 262.701C287.115 262.602 288.069 262.531 289.042 262.51C303.663 262.196 319.049 268.202 329.585 278.382C339.627 288.084 345.829 302.634 346.008 316.574C346.215 332.719 338.834 347.408 327.691 358.785C316.794 369.91 303.396 374.481 288.037 374.595C274.282 374.397 259.955 369.894 249.189 361.168C237.731 351.882 228.824 337.834 227.287 322.994Q227.158 321.819 227.087 320.64Q227.016 319.461 227.004 318.279Q226.992 317.097 227.038 315.917Q227.085 314.736 227.19 313.559Q227.295 312.382 227.459 311.212Q227.622 310.042 227.844 308.881Q228.065 307.72 228.344 306.572Q228.623 305.424 228.959 304.291Q229.295 303.158 229.687 302.043Q230.078 300.929 230.525 299.835Q230.971 298.741 231.472 297.67Q231.972 296.6 232.525 295.556Q233.078 294.511 233.682 293.496Q234.287 292.48 234.94 291.496Q235.594 290.512 236.296 289.562Q236.999 288.611 237.747 287.697C250.188 272.417 266.792 264.626 286.147 262.701Z"/>
		<path fill="#F0F5F7" d="M237.238 552.488C239.271 552.64 240.667 553.165 242.354 554.308C253.978 562.185 266.683 583.62 268.978 597.447Q269.109 598.218 269.202 598.995Q269.294 599.772 269.348 600.553Q269.402 601.334 269.417 602.116Q269.432 602.898 269.408 603.681Q269.385 604.463 269.322 605.243Q269.259 606.023 269.158 606.799Q269.056 607.574 268.917 608.344Q268.777 609.114 268.599 609.876Q268.421 610.638 268.206 611.391Q267.99 612.143 267.738 612.883Q267.485 613.624 267.196 614.351Q266.907 615.078 266.582 615.79Q266.257 616.502 265.897 617.197Q265.537 617.892 265.143 618.568Q264.749 619.244 264.322 619.9Q263.895 620.555 263.436 621.189C257.603 629.196 249.305 632.472 239.834 633.979C236.019 634.103 232.459 633.875 228.794 632.788C221.047 630.491 214.106 625.149 210.334 617.955Q209.98 617.272 209.66 616.572Q209.34 615.872 209.054 615.157Q208.769 614.442 208.519 613.714Q208.27 612.986 208.056 612.246Q207.842 611.507 207.665 610.758Q207.488 610.009 207.348 609.252Q207.208 608.495 207.106 607.732Q207.003 606.969 206.938 606.202Q206.874 605.435 206.847 604.666Q206.82 603.897 206.83 603.127Q206.841 602.357 206.89 601.589Q206.939 600.821 207.025 600.056Q207.111 599.291 207.235 598.532Q207.359 597.772 207.52 597.019Q207.682 596.267 207.88 595.523Q208.078 594.779 208.312 594.046C212.032 582.083 225.841 558.461 237.238 552.488Z"/>
		<path fill="#F0F5F7" d="M268.357 660.848C270.572 660.868 271.86 661.485 273.554 662.894C284.2 671.747 298.741 695.138 299.862 709.285Q299.911 709.95 299.928 710.617Q299.944 711.284 299.927 711.95Q299.911 712.617 299.861 713.282Q299.811 713.947 299.729 714.609Q299.646 715.271 299.531 715.927Q299.416 716.584 299.269 717.235Q299.121 717.885 298.941 718.527Q298.762 719.17 298.551 719.802Q298.34 720.435 298.097 721.056Q297.855 721.678 297.583 722.286Q297.31 722.895 297.008 723.489Q296.705 724.084 296.374 724.662Q296.042 725.241 295.683 725.803Q295.323 726.364 294.936 726.907Q294.549 727.45 294.135 727.974Q293.722 728.497 293.283 728.999C286.827 736.425 279.011 739.619 269.362 740.286C267.706 740.319 266.089 740.224 264.445 740.026Q263.705 739.933 262.971 739.805Q262.237 739.676 261.51 739.512Q260.782 739.347 260.064 739.147Q259.346 738.947 258.639 738.712Q257.931 738.477 257.236 738.207Q256.541 737.938 255.86 737.635Q255.179 737.332 254.513 736.995Q253.848 736.659 253.2 736.291Q252.552 735.922 251.923 735.522Q251.294 735.122 250.685 734.692Q250.076 734.262 249.489 733.802Q248.902 733.343 248.338 732.855Q247.775 732.367 247.235 731.852Q246.696 731.337 246.183 730.797Q245.67 730.256 245.184 729.691Q244.698 729.125 244.24 728.537C239.654 722.529 237.592 715.635 238.661 708.124C240.889 692.477 255.866 670.271 268.357 660.848Z"/>
		<path fill="#F0F5F7" d="M760.743 306.596C770.675 305.724 780.286 307.24 788.528 313.15C797.737 319.753 804.213 329.281 806.018 340.537Q806.17 341.54 806.272 342.549Q806.374 343.558 806.427 344.571Q806.48 345.584 806.483 346.598Q806.487 347.613 806.44 348.626Q806.394 349.639 806.298 350.649Q806.203 351.659 806.057 352.663Q805.912 353.667 805.719 354.662Q805.525 355.658 805.282 356.643Q805.04 357.628 804.75 358.599Q804.459 359.571 804.122 360.528Q803.784 361.484 803.4 362.423Q803.017 363.362 802.587 364.281Q802.158 365.2 801.684 366.097Q801.211 366.994 800.694 367.867Q800.177 368.739 799.618 369.586Q799.059 370.432 798.459 371.25C791.84 380.343 783.036 385.132 772.063 386.929C762.324 388.257 752.872 387.466 744.38 382.15C735.063 376.318 728.599 366.491 726.187 355.845C723.686 344.813 726.171 333.991 732.233 324.543C739.068 313.892 748.673 309.153 760.743 306.596ZM770.557 378.911C779.704 377.31 787.246 372.937 792.666 365.294Q793.126 364.658 793.554 364Q793.982 363.341 794.375 362.662Q794.769 361.983 795.128 361.284Q795.487 360.586 795.811 359.871Q796.134 359.155 796.421 358.424Q796.708 357.693 796.957 356.949Q797.207 356.205 797.419 355.449Q797.63 354.693 797.804 353.927Q797.977 353.161 798.111 352.387Q798.246 351.614 798.341 350.835Q798.436 350.055 798.492 349.272Q798.548 348.489 798.564 347.704Q798.58 346.919 798.556 346.134Q798.533 345.349 798.47 344.567Q798.407 343.784 798.304 343.006Q798.202 342.227 798.06 341.455Q797.91 340.658 797.721 339.869Q797.532 339.08 797.305 338.302Q797.078 337.523 796.812 336.756Q796.547 335.99 796.245 335.237Q795.942 334.485 795.603 333.748Q795.264 333.011 794.889 332.291Q794.515 331.572 794.105 330.872Q793.696 330.172 793.252 329.492Q792.809 328.813 792.333 328.156Q791.857 327.5 791.349 326.867Q790.841 326.235 790.303 325.628Q789.765 325.021 789.198 324.441Q788.63 323.861 788.035 323.31Q787.44 322.759 786.819 322.237Q786.198 321.716 785.552 321.226Q784.905 320.735 784.236 320.277Q783.62 319.848 782.984 319.447Q782.349 319.047 781.696 318.676Q781.042 318.305 780.373 317.964Q779.704 317.623 779.019 317.313Q778.335 317.003 777.637 316.725Q776.94 316.447 776.23 316.201Q775.52 315.955 774.8 315.741Q774.08 315.528 773.35 315.348Q772.621 315.168 771.884 315.021Q771.148 314.875 770.405 314.762Q769.663 314.649 768.916 314.57Q768.169 314.492 767.419 314.447Q766.669 314.403 765.918 314.393Q765.167 314.383 764.416 314.407Q763.665 314.431 762.916 314.49Q762.167 314.548 761.422 314.641C751.807 316.521 744.014 320.822 738.486 329.111C733.817 336.113 731.345 344.683 733.063 353.055Q733.229 353.874 733.436 354.684Q733.643 355.494 733.891 356.292Q734.138 357.091 734.426 357.876Q734.713 358.661 735.039 359.43Q735.365 360.2 735.73 360.952Q736.094 361.704 736.496 362.437Q736.897 363.17 737.335 363.882Q737.773 364.594 738.246 365.284Q738.719 365.973 739.226 366.637Q739.733 367.302 740.273 367.94Q740.812 368.578 741.383 369.189Q741.954 369.799 742.555 370.38Q743.156 370.961 743.786 371.512Q744.415 372.062 745.071 372.58Q745.727 373.098 746.408 373.582Q747.089 374.066 747.794 374.516C754.657 378.891 762.589 380.098 770.557 378.911Z"/>
		<path fill="#F0F5F7" d="M761.446 322.126C767.98 321.731 774.046 322.204 779.688 325.907C785.473 329.703 789.896 336.022 791.294 342.812C792.626 349.279 790.926 355.867 787.253 361.278C782.957 367.606 777.395 370.479 770.111 371.944C763.995 372.798 758.341 372.346 752.942 369.102C746.878 365.458 742.07 358.901 740.611 351.956C739.223 345.355 740.792 337.98 744.637 332.451C748.699 326.611 754.602 323.471 761.446 322.126Z"/>
	</g>
</svg>
